<svg width="24" height="24" viewBox="0 0 24 24" fill="none" xmlns="http://www.w3.org/2000/svg">
<path d="M19 17.5V8.03001C19 6.97275 18.4435 5.99354 17.5351 5.45253L14.0801 3.39474C13.1516 2.84178 11.9976 2.83086 11.0588 3.36616L4.04529 7.3656C3.8161 7.4963 3.60515 7.65665 3.4179 7.84253L2.88652 8.37C2.31912 8.93323 2 9.69964 2 10.4991V16.5C2 18.1569 3.34314 19.5 5 19.5H8.8H17C18.1046 19.5 19 18.6046 19 17.5Z" fill="#F8C429"/>
<path d="M12 21.5H19C20.6569 21.5 22 20.1569 22 18.5V9.94313C22 8.8654 21.4219 7.87049 20.4856 7.3368L13.4856 3.3468C12.5647 2.82191 11.4353 2.82191 10.5144 3.3468L3.51439 7.3368C2.57809 7.87049 2 8.8654 2 9.94313V18.5C2 20.1569 3.34315 21.5 5 21.5H12ZM12 21.5V15.1667" stroke="#363636" stroke-width="2" stroke-linecap="round"/>
</svg>
