<svg width="20" height="20" viewBox="0 0 20 20" fill="none" xmlns="http://www.w3.org/2000/svg">
<path d="M1.12423 9.99999C0.502913 9.99999 -0.00731087 10.5053 0.0624371 11.1227C0.271955 12.9772 0.997562 14.7444 2.16733 16.2178C3.57128 17.9862 5.53238 19.2274 7.73149 19.7395C9.93061 20.2515 12.2383 20.0042 14.279 19.0379C16.3197 18.0715 17.9733 16.443 18.9707 14.4173L17.1764 13.5338C16.3785 15.1544 15.0556 16.4572 13.423 17.2303C11.7905 18.0034 9.94433 18.2012 8.18504 17.7916C6.42575 17.3819 4.85687 16.389 3.73371 14.9742C2.79267 13.7889 2.21094 12.366 2.04703 10.8733C1.99428 10.3929 1.60748 9.99999 1.12423 9.99999Z" fill="white"/>
<path d="M18.8977 15.7083L18.4494 13.5176L16.2588 13.9659" stroke="white" stroke-width="2" stroke-linecap="round" stroke-linejoin="round"/>
<path d="M18.8751 10C19.4964 10 20.0066 9.49472 19.9369 8.87733C19.7336 7.07806 19.0445 5.36007 17.9336 3.91239C16.5935 2.16595 14.7146 0.910495 12.5883 0.340745C10.462 -0.229004 8.20704 -0.081209 6.17326 0.761208C4.13949 1.60363 2.44051 3.09359 1.33984 5L3.07189 6C3.95243 4.47487 5.31161 3.2829 6.93863 2.60897C8.56565 1.93503 10.3696 1.8168 12.0707 2.2726C13.7717 2.7284 15.2748 3.73276 16.3469 5.12991C17.2407 6.29472 17.7932 7.67827 17.9523 9.12671C18.005 9.60707 18.3918 10 18.8751 10Z" fill="white"/>
<path d="M1 5L2 7L4 6" stroke="white" stroke-width="2" stroke-linecap="round" stroke-linejoin="round"/>
</svg>
