<svg width="56" height="56" viewBox="0 0 56 56" fill="none" xmlns="http://www.w3.org/2000/svg">
<path d="M21.3857 9.50814L21.3761 9.50939L21.3664 9.51073C19.7939 9.73016 18.5788 11.078 18.5788 12.7095V29.3371C18.3655 29.3229 18.1501 29.3155 17.9328 29.3155C12.3298 29.3155 7.79883 33.8695 7.79883 39.4635C7.79883 45.0621 12.3343 49.5975 17.9328 49.5975C23.5314 49.5975 28.0668 45.0621 28.0668 39.4635C28.0668 39.3387 28.0619 39.2164 28.0587 39.1363L28.0582 39.1246C28.0544 39.0292 28.0528 38.9825 28.0528 38.9455V20.3008L39.2988 18.8454V24.5068C39.08 24.4927 38.86 24.4855 38.6388 24.4855C33.0403 24.4855 28.5048 29.021 28.5048 34.6195C28.5048 40.2181 33.0403 44.7535 38.6388 44.7535C44.2374 44.7535 48.7728 40.2181 48.7728 34.6195V34.6195V34.6194V34.6193V34.6192V34.6191V34.6191V34.619V34.6189V34.6188V34.6187V34.6187V34.6186V34.6185V34.6184V34.6183V34.6183V34.6182V34.6181V34.618V34.618V34.6179V34.6178V34.6177V34.6177V34.6176V34.6175V34.6174V34.6174V34.6173V34.6172V34.6171V34.6171V34.617V34.6169V34.6169V34.6168V34.6167V34.6166V34.6166V34.6165V34.6164V34.6164V34.6163V34.6162V34.6162V34.6161V34.616V34.6159V34.6159V34.6158V34.6157V34.6157V34.6156V34.6155V34.6155V34.6154V34.6153V34.6153V34.6152V34.6152V34.6151V34.615V34.615V34.6149V34.6148V34.6148V34.6147V34.6146V34.6146V34.6145V34.6145V34.6144V34.6143V34.6143V34.6142V34.6141V34.6141V34.614V34.614V34.6139V34.6138V34.6138V34.6137V34.6137V34.6136V34.6135V34.6135V34.6134V34.6134V34.6133V34.6132V34.6132V34.6131V34.6131V34.613V34.613V34.6129V34.6128V34.6128V34.6127V34.6127V34.6126V34.6126V34.6125V34.6125V34.6124V34.6123V34.6123V34.6122V34.6122V34.6121V34.6121V34.612V34.612V34.6119V34.6119V34.6118V34.6117V34.6117V34.6116V34.6116V34.6115V34.6115V34.6114V34.6114V34.6113V34.6113V34.6112V34.6112V34.6111V34.6111V34.611V34.611V34.6109V34.6109V34.6108V34.6108V34.6107V34.6107V34.6106V34.6106V34.6105V34.6105V34.6104V34.6104V34.6103V34.6103V34.6102V34.6102V34.6101V34.6101V34.61V34.61V34.6099V34.6099V34.6099V34.6098V34.6098V34.6097V34.6097V34.6096V34.6096V34.6095V34.6095V34.6094V34.6094V34.6093V34.6093V34.6092V34.6092V34.6092V34.6091V34.6091V34.609V34.609V34.6089V34.6089V34.6088V34.6088V34.6087V34.6087V34.6087V34.6086V34.6086V34.6085V34.6085V34.6084V34.6084V34.6084V34.6083V34.6083V34.6082V34.6082V34.6081V34.6081V34.608V34.608V34.608V34.6079V34.6079V34.6078V34.6078V34.6077V34.6077V34.6077V34.6076V34.6076V34.6075V34.6075V34.6074V34.6074V34.6074V34.6073V34.6073V34.6072V34.6072V34.6072V34.6071V34.6071V34.607V34.607V34.6069V34.6069V34.6069V34.6068V34.6068V34.6067V34.6067V34.6067V34.6066V34.6066V34.6065V34.6065V34.6064V34.6064V34.6064V34.6063V34.6063V34.6062V34.6062V34.6062V34.6061V34.6061V34.606V34.606V34.606V34.6059V34.6059V34.6058V34.6058V34.6057V34.6057V34.6057V34.6056V34.6056V34.6055V34.6055V34.6055V34.6054V34.6054V34.6053V34.6053V34.6053V34.6052V34.6052V34.6051V34.6051V34.605V34.605V34.605V34.6049V34.6049V34.6048V34.6048V34.6048V34.6047V34.6047V34.6046V34.6046V34.6046V34.6045V34.6045V34.6044V34.6044V34.6043V34.6043V34.6043V34.6042V34.6042V34.6041V34.6041V34.6041V34.604V34.604V34.6039V34.6039V34.6038V34.6038V34.6038V34.6037V34.6037V34.6036V34.6036V34.6035V34.6035V34.6035V34.6034V34.6034V34.6033V34.6033V34.6032V34.6032V34.6032V34.6031V34.6031V34.603V34.603V34.6029V34.6029V34.6029V34.6028V34.6028V34.6027V34.6027V34.6026V34.6026V34.6026V34.6025V34.6025V34.6024V34.6024V34.6023V34.6023V34.6022V34.6022V34.6022V34.6021V34.6021V34.602V34.602V34.6019V34.6019V34.6018V34.6018V34.6017V34.6017V34.6017V34.6016V34.6016V34.6015V34.6015V34.6014V34.6014V34.6013V34.6013V34.6012V34.6012V34.6011V34.6011V34.601V34.601V34.6009V34.6009V34.6008V34.6008V34.6007V34.6007V34.6007V34.6006V34.6006V34.6005V34.6005V34.6004V34.6004V34.6003V34.6003V34.6002V34.6002V34.6001V34.6001V34.6V34.6V34.5999V34.5999V34.5998V34.5997V34.5997V34.5996V34.5996V34.5995V34.5995V34.5994V34.5994V34.5993V34.5993V34.5992V34.5992V34.5991V34.5991V34.599V34.599V34.5989V34.5988V34.5988V34.5987V34.5987V34.5986V34.5986V34.5985V34.5985V34.5984V34.5983V34.5983V34.5982V34.5982V34.5981V34.5981V34.598V34.5979V34.5979V34.5978V34.5978V34.5977V34.5977V34.5976V34.5975V34.5975V34.5974V34.5974V34.5973V34.5972V34.5972V34.5971V34.5971V34.597V34.5969V34.5969V34.5968V34.5968V34.5967V34.5966V34.5966V34.5965V34.5964V34.5964V34.5963V34.5963V34.5962V34.5961V34.5961V34.596V34.5959V34.5959V34.5958V34.5957V34.5957V34.5956V34.5955V34.5955V34.5954V34.5953V34.5953V34.5952V34.5951V34.5951V34.595V34.5949V34.5949V34.5948V34.5947V34.5946V34.5946V34.5945V34.5944V34.5944V34.5943V34.5942V34.5942V34.5941V34.594V34.5939V34.5939V34.5938V34.5937V34.5936V34.5936V34.5935V34.5934V34.5933V34.5933V34.5932V34.5931V34.593V34.593V34.5929V34.5928V34.5927V34.5927V34.5926V34.5925V34.5924V34.5923V34.5923V34.5922V34.5921V34.592V34.5919V34.5919V34.5918V34.5917V34.5916V34.5915V9.61554C48.7728 7.6663 47.0666 6.17277 45.1399 6.42864C45.1379 6.4289 45.136 6.42916 45.134 6.42942L21.3857 9.50814Z" fill="#402A32" stroke="white" stroke-width="4"/>
</svg>
