<svg width="56" height="56" viewBox="0 0 56 56" fill="none" xmlns="http://www.w3.org/2000/svg">
<path d="M14.51 21.8332L15.8798 23.1915C15.7247 24.7958 16.2645 26.4569 17.4987 27.679C17.4994 27.6797 17.5001 27.6804 17.5008 27.6811L19.9275 30.0928L19.9316 30.0968C20.6994 30.8555 21.0425 31.9652 20.8393 33.0879L20.8392 33.0879L20.8369 33.1015C20.0107 37.8519 21.421 42.9308 25.1197 46.595C31.1793 52.6021 41.0201 52.4817 46.9242 46.2496L46.926 46.2477C52.5586 40.2869 52.4366 30.8346 46.6507 25.0142L46.6465 25.01C42.9395 21.3029 37.7958 19.8855 33.0125 20.7987C31.9313 20.9982 30.865 20.6782 30.1247 19.9482C30.1241 19.9476 30.1235 19.947 30.1228 19.9463L27.6415 17.48C27.6408 17.4793 27.64 17.4785 27.6392 17.4777C26.4014 16.2414 24.7308 15.7172 23.1271 15.887L21.7491 14.5205C23.1111 12.2042 22.872 9.18176 21.0337 7.1112L21.0336 7.11107C18.5993 4.36983 14.3702 4.27998 11.8208 6.84789C10.8775 7.79251 10.2996 8.97141 10.0795 10.1876C8.85294 10.414 7.67594 11.0077 6.73885 11.9448L6.72666 11.957L6.71468 11.9694C4.22831 14.543 4.32146 18.7589 7.09043 21.1786C9.17177 23.0052 12.1993 23.2165 14.51 21.8332Z" fill="#D3883E" stroke="white" stroke-width="4"/>
<path d="M8.40808 19.674C10.0131 21.084 12.4731 21.084 14.0931 19.674C14.4081 19.389 14.8881 19.3891 15.1881 19.6891L24.0981 28.524L28.5231 24.0541L19.6131 15.219C19.3131 14.919 19.2981 14.439 19.5831 14.124C20.9781 12.504 20.9631 10.0441 19.5381 8.43906C17.8731 6.56406 14.9781 6.50407 13.2381 8.25907C12.4131 9.08407 11.9931 10.1791 11.9781 11.2591C11.9781 11.7091 11.6031 12.0841 11.1531 12.0841C10.0731 12.0991 8.97806 12.5341 8.15306 13.3591C6.44306 15.1291 6.51808 18.024 8.40808 19.674Z" fill="#D3D3D3"/>
<path d="M26.5273 45.1742C31.7923 50.3942 40.3423 50.2892 45.4723 44.8742C50.3623 39.6992 50.2573 31.4792 45.2323 26.4242C42.0073 23.1992 37.5373 21.9692 33.3823 22.7642C31.6873 23.0792 29.9473 22.5843 28.7173 21.3693L26.2273 18.8943C24.8323 17.4993 22.5673 17.5142 21.1873 18.9092L18.8923 21.2192C17.4973 22.6142 17.5123 24.8793 18.9073 26.2593L21.3373 28.6742C22.5973 29.9192 23.1223 31.7042 22.8073 33.4442C22.0873 37.5842 23.3173 41.9942 26.5273 45.1742Z" fill="#D3883E"/>
<g opacity="0.7">
<path d="M39.4285 29.1244C40.4226 29.1244 41.2285 28.3185 41.2285 27.3244C41.2285 26.3303 40.4226 25.5244 39.4285 25.5244C38.4344 25.5244 37.6285 26.3303 37.6285 27.3244C37.6285 28.3185 38.4344 29.1244 39.4285 29.1244Z" fill="#A56953"/>
<path d="M43.6887 37.5994C45.3041 37.5994 46.6137 36.2898 46.6137 34.6744C46.6137 33.0589 45.3041 31.7494 43.6887 31.7494C42.0732 31.7494 40.7637 33.0589 40.7637 34.6744C40.7637 36.2898 42.0732 37.5994 43.6887 37.5994Z" fill="#A56953"/>
<path d="M39.2187 32.5144C39.2187 33.2268 38.6411 33.8044 37.9287 33.8044C37.2162 33.8044 36.6387 33.2268 36.6387 32.5144C36.6387 31.8019 37.2162 31.2244 37.9287 31.2244C38.6411 31.2244 39.2187 31.8019 39.2187 32.5144Z" fill="#A56953"/>
</g>
</svg>
