<svg width="56" height="56" viewBox="0 0 56 56" fill="none" xmlns="http://www.w3.org/2000/svg">
<path d="M13.6768 48.8659L13.6804 48.8672C15.944 49.6918 19.0745 49.977 22.1119 50.0834C25.2279 50.1925 28.6554 50.119 31.708 50.0536L31.7531 50.0526C32.8121 50.0299 33.8253 50.0082 34.7803 49.9945L34.8011 49.9942L34.8219 49.9937C35.0662 49.9868 35.3072 49.9804 35.5477 49.974L35.4681 46.975L35.5477 49.974C35.6553 49.9711 35.7633 49.9683 35.8716 49.9655C38.742 49.8911 41.8312 49.811 44.5632 48.5595C47.6375 47.1512 49.8518 44.5133 51.6626 40.331L51.6645 40.3266C53.7979 35.3775 52.979 29.2442 48.7898 24.8082C48.7848 23.5141 48.7662 21.8347 48.6971 20.1445C48.6929 19.0654 48.5857 18.0149 48.5009 17.1842L48.4954 17.1303C48.4591 16.7749 48.4276 16.4651 48.4034 16.1748C48.3042 14.9817 48.0924 13.5795 47.633 12.4703C47.171 11.2681 46.4098 10.1921 45.4467 9.38808L45.3608 9.31642L45.2699 9.25134C43.6257 8.07486 41.8346 8.17531 40.62 8.52295C39.421 8.86615 38.4584 9.51771 37.7202 10.2319C37.0432 10.8144 36.4877 11.4653 36.0397 11.9903C36.0192 12.0143 35.9989 12.038 35.9789 12.0615L35.9789 12.0615L35.8592 12.2015L35.8019 12.2685L35.7487 12.3387C34.3006 14.2474 32.9001 16.6919 31.7258 18.9951C31.0692 18.799 30.3515 18.6203 29.58 18.4781C29.6102 17.4178 29.623 16.1724 29.5167 14.9539C29.4985 13.2295 29.159 11.5596 28.7149 10.2132C28.2845 8.8227 26.8108 5.94629 23.305 5.94629C20.8885 5.94629 19.082 7.42722 18.1191 8.2165L18.0965 8.23507L17.9807 8.32994L17.875 8.43585C16.797 9.51576 15.6308 10.8984 14.5718 12.4899L14.5651 12.4998L14.5585 12.5099C13.4184 14.2532 10.675 19.4187 9.28258 22.1969C5.56808 25.4887 3.10938 30.1803 3.10938 35.1638C3.10938 41.0083 6.67511 46.3052 13.6768 48.8659Z" fill="#F8C429" stroke="white" stroke-width="6"/>
<path fill-rule="evenodd" clip-rule="evenodd" d="M25.0183 6.93211C24.8232 6.92295 24.641 7.0485 24.5402 7.21611C24.161 6.91478 23.9228 7.08147 23.5097 7.22893C23.0911 7.14192 22.6358 6.88639 22.2676 7.23443C22.1229 7.1291 21.9562 7.13368 21.7876 7.11811C21.6255 7.05033 21.4643 7.00637 21.2958 7.07781C20.781 7.23351 20.0692 7.83709 20.5217 8.38846L20.5181 8.36922C20.2625 8.16773 20.0418 8.08438 19.7514 8.28038C19.0598 7.86273 18.6669 8.71635 19.2549 9.16606C19.2082 9.21643 19.1478 9.28146 19.0946 9.33916C18.8995 9.07172 18.5001 9.00944 18.2922 9.29428C18.0651 9.65515 17.6693 9.96655 17.7197 10.4318C17.4669 10.615 17.3881 10.8788 17.5072 11.1682C17.4806 11.1911 17.4587 11.1801 17.4358 11.1655C17.2654 11.0436 17.0272 11.0473 16.8669 11.1847C16.3769 11.3541 16.1195 11.7938 16.0013 12.2902C15.765 12.3314 15.5671 12.4953 15.5662 12.7463C15.4646 13.1649 15.0414 13.4461 14.8096 13.8042C14.3718 14.3427 14.1354 14.4545 14.5779 15.1176C14.2765 15.2449 14.2069 15.5563 14.1629 15.8503C13.8084 15.8668 13.5593 16.0518 13.5712 16.4282C13.1324 16.3943 12.9547 16.7882 13.0134 17.1719C12.7779 17.4156 12.8054 17.7819 12.5819 18.0411C12.3181 18.456 12.0223 18.9021 12.0809 19.414C11.589 19.97 11.3939 20.7375 11.0403 21.3878C10.9826 21.5682 10.7472 21.4831 10.6373 21.6204C10.3442 21.8238 10.5878 22.1324 10.4587 22.3889C9.67549 22.6985 9.55732 23.6263 9.45931 24.3617C9.26237 24.4231 9.07001 24.4964 8.92162 24.6438C8.10273 24.4561 7.4826 25.2044 7.45878 25.981C6.65912 25.6715 6.58768 26.7348 6.34127 27.2312C6.19472 27.8998 5.74496 28.4045 6.11594 29.1152C5.581 28.9705 4.91966 29.3442 5.31078 29.9038C5.2659 30.0092 5.21735 30.1255 5.17247 30.2326C3.771 30.6164 4.63112 31.1073 4.52395 31.6504C3.8223 31.9646 4.47998 32.407 4 33.0508V33.3513C4.39754 33.8926 4.37006 34.7764 4.87844 35.2655C4.70989 35.3598 4.56059 35.4826 4.37281 35.5393C3.7765 35.7518 3.9771 37.3024 4.9966 36.6897C4.97828 37.8254 4.29129 37.667 5.2485 38.6809C4.48273 38.799 4.62379 39.4969 5.23109 39.758C4.99568 40.0932 5.06347 40.4678 5.56909 40.6052C5.53887 40.9889 5.6497 41.3104 6.08022 41.3443C6.14067 41.566 6.40356 41.6914 6.42005 41.9039C6.39165 42.1045 6.50707 42.2575 6.58768 42.4269C6.62615 42.5533 6.63348 42.6925 6.74156 42.7859C7.08872 43.2155 7.79312 44.4062 8.40958 44.2184C8.48927 44.4245 8.71827 44.4556 8.82544 44.6232C9.17718 45.301 9.2468 45.4466 10.0437 45.3541C10.4 45.5922 10.8571 45.6847 11.0357 45.1975C11.0999 45.1783 11.142 45.1938 11.1713 45.2424C10.6803 46.6464 11.6897 46.5805 12.658 46.9652C13.1297 47.1364 13.3596 47.7996 13.922 47.7162C14.2353 47.8811 14.5669 47.9992 14.9259 47.9186C15.1394 48.2483 16.1726 48.568 16.4346 48.1732C16.4978 48.1815 16.5665 48.1916 16.6416 48.2026C17.1005 48.8309 17.913 48.8528 17.9909 47.9351C18.2803 48.2493 18.7695 48.3015 18.9407 47.8399C19.3401 47.9663 19.4967 47.9104 19.6937 47.5688C19.8512 47.6814 20.0189 47.7327 20.2158 47.7263C19.44 48.1604 20.1737 48.9939 20.8323 48.5021C21.1391 48.8153 21.4945 48.5588 21.8289 48.4508C22.1495 48.8052 22.5497 49.1954 22.9546 48.7081C23.1479 48.7906 23.3375 48.7667 23.517 48.6284C24.1564 49.2458 24.7481 48.4242 24.1289 47.8316C24.2636 47.8866 24.3048 47.9095 24.3561 47.9974C24.6455 48.4444 25.3957 48.4947 25.8189 48.2337C25.7145 48.8199 26.3355 48.8125 26.679 49.0626H26.8668C27.3587 48.8052 28.1694 49.0919 28.4625 48.5048C28.7931 49.1047 29.7384 48.9325 30.3164 48.8593C30.4199 48.9261 30.5299 48.9966 30.6334 49.0635H30.8212C30.8743 49.0259 30.9283 48.9884 30.9906 48.9444C31.1051 49.0241 31.2434 49.0882 31.3863 49.0635C32.1319 48.6642 32.4516 49.0946 32.9343 48.8299C33.2211 49.0241 33.7047 48.9994 33.8851 48.6724C34.3486 48.9902 35.3516 48.9444 35.5394 48.3225C35.7391 48.4993 35.9507 48.5094 36.176 48.3949C36.2667 48.5982 36.4115 48.7558 36.6423 48.7567C37.0316 48.7402 37.539 48.8849 37.7616 48.4654C37.9558 48.6083 38.1683 48.5662 38.3836 48.546C38.6401 48.5726 38.8645 48.7777 39.1081 48.5588C39.2922 48.4324 39.5478 48.5222 39.7447 48.4343C39.8968 48.3482 40.0727 48.3921 40.2375 48.3802C42.0008 48.4755 42.7382 47.9782 44.267 47.4021C44.5235 47.3334 44.5125 47.0559 44.6508 46.8791C44.7992 46.6611 45.0062 46.4541 44.9183 46.161C44.9851 46.0914 45.0612 46.0108 45.128 45.943C45.5018 46.477 46.9628 46.1867 46.5634 45.3825C46.9728 44.8375 48.2506 45.2076 48.0006 44.0517C48.5694 43.8933 48.8616 43.3675 49.0311 42.8198C49.4304 42.7282 49.8582 42.4452 49.7162 41.9799C49.9654 41.7574 50.3309 41.5394 50.3116 41.163C50.6551 40.9019 50.3144 40.5438 50.5663 40.2846C50.7889 40.1225 51.0004 39.9485 50.9748 39.6453C52.0529 38.2651 50.8356 37.6331 50.449 38.6085C50.0689 37.2933 51.1525 37.8465 51.4291 37.0286C51.779 36.7612 51.8523 36.2876 51.3925 36.0843C51.507 35.6135 51.6242 35.1354 51.6123 34.6491C51.9375 34.4714 52.0154 34.0858 51.7424 33.8229C51.9384 33.6517 51.8761 33.419 51.9384 33.2065C52.1363 32.8521 51.8313 32.4647 51.4456 32.4857C51.4273 32.3035 51.3302 32.1707 51.1763 32.0681C51.3888 31.6404 51.0902 31.1623 51.1479 30.7043C51.0719 30.2216 51.2414 29.5869 50.8731 29.2132C50.9427 28.7718 50.7 28.3395 50.2072 28.4943C49.9929 28.0876 50.0524 27.4932 49.5165 27.2972C49.0155 26.787 48.5538 26.2164 47.9786 25.774C47.9511 25.6806 47.9145 25.5515 47.8861 25.4516C48.1334 25.2208 48.0876 24.7849 47.7642 24.6411C47.8732 24.2427 47.4061 24.1566 47.4977 23.8763C48.1206 23.5347 48.0253 23.2004 47.6424 22.7204C48.2048 22.4365 47.8265 21.7523 47.822 21.2706C47.9942 20.623 48.1087 19.8088 47.6149 19.2382C47.7688 18.6978 47.3557 18.1712 47.4803 17.6033C47.4134 17.2012 47.7038 16.8312 47.4684 16.4703C47.6388 16.2734 47.538 16.0637 47.549 15.8411C47.6415 15.5581 47.5059 15.3667 47.2577 15.222C47.385 14.7805 47.1597 14.361 47.2 13.9196C47.2275 13.7172 47.08 13.5578 46.917 13.4543C46.9023 12.9991 46.9444 12.2865 46.3646 12.1922C46.349 12.0869 46.2822 11.9934 46.328 11.8863C46.4755 11.4411 46.0083 11.1939 45.6227 11.2671C45.5879 11.1398 45.5384 11.0262 45.4679 10.9163C45.6391 10.4392 45.2444 10.1717 44.7561 10.2395C44.5601 10.1103 44.4117 9.97022 44.1974 9.84382C44.1397 9.39411 43.438 9.07813 43.1422 9.4967C43.1028 9.55989 43.057 9.63683 42.9663 9.59836C43.0057 8.94441 42.3205 8.84732 41.9798 9.32267C41.3688 9.31718 40.4647 9.08179 40.134 9.75223C39.7521 9.86489 39.3838 10.1314 39.1164 10.4282C38.8049 10.386 38.5457 10.6251 38.2691 10.7332C38.0273 10.8147 38.0245 11.0501 37.91 11.2287C37.7076 11.443 37.8065 11.7571 37.7836 12.0246C37.6838 12.1143 37.5867 12.2023 37.4795 12.2984C37.3064 12.2929 37.1415 12.3387 37.0224 12.4926C36.6331 12.4285 36.2026 12.6181 36.2768 13.0779C35.9443 13.3984 35.2921 14.0753 35.8261 14.4774C35.9306 14.5543 35.9434 14.688 36.0121 14.7961C35.9525 14.8684 35.8857 14.9518 35.8261 15.0241C35.4561 15.0223 35.3242 15.1231 35.2197 15.4977C34.5694 15.4244 34.6839 15.9098 34.3633 16.2771C34.1096 16.7268 33.5013 17.1472 33.6827 17.7132C33.4006 17.9046 33.0736 18.0823 33.1789 18.4817C32.916 18.6795 32.905 19.0898 33.1945 19.2831C33.1432 19.3426 33.0983 19.3939 33.0488 19.4525C32.731 19.3884 32.4177 19.5862 32.3994 19.9269C31.9359 19.6952 31.5146 19.8903 31.5668 20.4453C31.3387 20.5397 31.1821 20.6642 31.0987 20.8199C31.0181 20.7018 30.9485 20.5708 30.812 20.5131V20.3043C31.4962 19.5175 30.2111 19.2583 29.6395 19.3893C29.3281 19.2822 29.111 18.9625 28.7684 18.9707C28.7382 18.3891 28.4304 17.8836 28.3471 17.3121C28.6154 16.9997 28.2628 16.6764 28.3571 16.3366C28.4396 16.0637 28.2747 15.8173 28.1162 15.6039C28.8527 15.6973 29.1486 14.8575 28.3956 14.6395C28.4854 14.4169 28.4551 14.1898 28.3031 14.0038C28.479 13.8784 28.6713 13.7465 28.6402 13.4854C28.6402 13.1649 28.7006 12.7967 28.3709 12.6144C28.1703 11.7791 28.3883 10.6077 27.6335 10.0352C27.9743 9.72018 27.6903 9.34466 27.4824 9.04882C27.236 8.68338 26.9685 8.12102 26.451 8.17139C26.2815 7.83068 25.8052 7.78213 25.5936 8.11918C25.5194 8.05416 25.4406 7.98363 25.3664 7.91769C25.4571 7.51286 25.5212 7.06132 25.0183 6.93493V6.93211ZM9.11765 30.5596C9.11765 30.5596 9.11673 30.5523 9.11581 30.5468L9.11765 30.5431C9.59396 30.5211 9.63152 30.0568 9.73136 29.6941C9.90448 29.4926 9.94295 29.2847 9.85044 29.0346C10.3451 29.0731 10.4541 28.7177 10.5448 28.3193C10.8626 27.9447 11.5276 27.3604 11.0531 26.8658C11.1484 26.7522 11.2144 26.6222 11.24 26.4701C11.6009 26.4802 12.0058 26.5013 12.2522 26.1844C12.5086 25.9994 12.6433 26.003 12.7624 25.6705C13.4457 25.8757 13.6775 25.5084 13.889 24.9461C14.0493 24.7098 14.2518 24.446 14.0695 24.1621C14.0301 24.075 14.119 24.0302 14.1977 24.0347C14.6823 23.9349 15.0762 23.1198 14.5119 22.8413C14.6118 22.7186 14.718 22.6133 14.8206 22.4942C15.0157 22.4164 15.023 22.2066 15.1577 22.0802C15.5616 21.7148 15.721 21.1368 16.1057 20.7696C16.5931 20.1193 15.2328 19.3115 15.0679 20.2704H14.6026C14.5779 20.2155 14.62 20.1568 14.6246 20.0982C14.9259 20.0204 14.9296 19.7328 15.0899 19.5322C15.2859 19.3518 15.4774 19.1768 15.4737 18.8901H15.5598C15.4554 19.3371 15.9629 19.7474 16.3329 19.415C16.6169 19.1136 17.0236 18.7867 16.9659 18.3305C17.3442 18.304 17.3707 17.9669 17.5622 17.7343C17.8993 17.4421 18.0064 17.0089 17.8141 16.6022C18.1805 16.6838 18.5102 16.4639 18.4736 16.0738C18.7072 15.984 18.7859 15.8036 18.9096 15.6103C19.1331 15.472 19.1505 15.2705 19.1203 15.0324C19.5196 14.8776 19.5581 14.8052 19.7743 14.4719C20.0619 14.2951 19.9227 13.8903 20.2332 13.7172C20.7947 13.3261 21.1171 12.7207 21.1144 12.0328C21.686 11.6252 22.0881 11.9156 21.9379 10.9282C21.9598 10.9053 22.0176 10.8422 22.0505 10.8064C22.4691 10.8101 22.7787 11.2232 23.2001 11.007C23.3311 11.062 23.5152 11.1407 23.6462 11.1966C23.6892 11.5043 23.6993 11.5217 23.9347 11.7132C23.9192 11.9852 24.1472 12.2526 24.0025 12.5256C23.8871 12.7335 23.9576 12.9157 24.0437 13.1117C23.5775 13.8637 24.869 14.0322 24.7994 14.8034C23.9741 14.9903 24.3515 16.0518 24.6785 16.55C24.5109 16.9356 24.2984 17.302 24.5301 17.7151C24.3533 17.868 24.27 18.0466 24.3314 18.2646C24.1115 18.6135 24.2608 18.8608 24.5384 19.1191C24.3204 19.4314 24.1921 19.7392 24.5155 20.0277C24.3323 21.5572 24.9936 20.8126 24.87 21.6855C24.1115 21.723 24.1875 22.485 24.8022 22.7351C25.2748 22.9302 25.8858 22.9668 26.363 22.8432C26.6076 23.0437 26.9025 23.0208 27.2057 23.0144C27.5914 23.4843 28.2207 23.4385 28.7693 23.3918C28.9177 23.6574 29.2667 23.7636 29.5159 23.5612C29.8584 23.9624 30.4145 24.1318 30.9265 24.0045C31.4642 24.2005 32.1576 25.0111 32.698 24.7171C32.9499 24.7986 33.1633 25.0102 33.4427 24.9781C33.5591 25.4113 34.1764 25.5029 34.3569 25.0715C34.5309 24.7345 34.5877 24.283 34.8488 24.0137C35.2747 23.9001 35.555 23.3872 35.1117 23.0813C35.0512 23.0547 35.0146 22.9769 35.0567 22.9183C35.1602 22.758 35.3535 22.7571 35.5229 22.7177C36.0084 22.6114 36.0075 21.9877 35.5825 21.7926C35.9516 21.8091 36.0634 21.4922 36.1513 21.1991C36.5864 21.3347 37.1543 20.852 36.9977 20.3995C36.94 20.1907 36.8081 20.0057 36.7898 19.7896C37.3549 20.1971 37.6398 19.5148 37.8028 19.0733C38.0886 18.3058 38.9359 17.759 38.9964 16.9219C39.1246 16.8211 39.1713 16.6728 39.2181 16.5161C39.5698 16.1937 39.2483 15.7935 39.0898 15.4601C39.121 15.4171 39.1576 15.3685 39.2006 15.3099C39.7191 15.2888 40.5526 15.4564 40.396 14.6486C40.9749 14.6944 41.0152 14.1953 40.9932 13.7501C41.1865 13.6091 41.3496 13.4479 41.486 13.2491H41.7205C41.7663 13.3938 41.7205 13.5404 41.7535 13.686C41.9074 13.7355 42.0329 13.6695 42.1428 13.5972C42.2683 13.6439 42.3837 13.6869 42.5156 13.7364C42.4753 14.155 42.7474 14.6871 43.2383 14.5268C43.0597 14.8208 42.74 15.1936 42.9361 15.5435C43.0405 15.8695 43.0194 16.1461 43.373 16.3357C43.2979 16.5848 43.1531 16.8843 43.3574 17.1124C43.4747 17.2489 43.4554 17.4275 43.6011 17.5548C43.2411 17.7004 43.1174 18.1217 43.4151 18.3974C43.624 18.5852 43.7128 18.9231 44.0243 18.9643C44.2487 19.0193 44.0444 19.2244 43.9858 19.3536C43.4838 19.5285 43.308 20.3812 43.9748 20.4856C43.9272 20.8447 43.776 21.2871 44.1323 21.5536C44.027 21.8952 44.1259 22.3064 44.5299 22.3623C44.5555 22.4145 44.5335 22.4374 44.4887 22.4466C44.0041 22.4438 43.9821 22.9155 43.9913 23.2892C43.6111 23.3964 43.6588 23.7307 43.5763 24.0311C43.449 24.2674 43.5663 24.5064 43.7659 24.6603C43.6908 25.0999 43.5745 25.7191 43.9986 26.0058C43.4234 26.6973 44.2597 26.7458 44.2807 27.049C44.31 27.6507 45.6318 27.9997 45.9497 28.4714C45.7985 28.9769 45.5805 29.771 46.426 29.6712C46.4617 29.956 46.4187 30.2564 46.7246 30.4076C46.7942 30.6787 46.9719 30.8179 47.255 30.8124C47.2357 31.2996 46.9664 32.1496 47.6085 32.3245C47.6278 32.3841 47.5792 32.4024 47.549 32.4308C47.287 32.6552 47.3685 33.0756 47.669 33.2258C47.6552 33.3952 47.6882 33.5573 47.8073 33.6911C47.7203 34.029 47.7652 34.3386 48.1233 34.4806C47.9942 34.7846 47.9942 35.1583 48.2076 35.4175C48.1746 35.4789 48.1371 35.5476 48.1032 35.608C47.6406 35.5018 47.2531 36.0724 47.6278 36.4104C47.9071 36.632 48.236 36.981 48.6106 36.7447C48.7407 36.8363 48.6271 36.882 48.5822 36.9663C48.1288 36.8463 47.9282 37.0167 47.8329 37.405C47.5224 37.4801 47.4702 37.8648 47.1973 38.0077C46.9142 38.1826 46.7173 38.4263 46.6586 38.7578C46.5185 39.1837 46.0239 39.4768 46.0715 39.9604C45.8718 40.0593 45.6511 40.1509 45.6089 40.3936C45.5613 40.5649 45.4047 40.6748 45.3955 40.869C45.1418 40.9615 45.0163 41.1437 45.0291 41.4203C44.6343 41.5513 44.649 41.9772 44.496 42.2996C44.0206 42.1805 43.8117 42.5112 43.7211 42.9261C43.3281 42.9371 43.0698 42.894 42.8307 43.2686C42.4817 43.5571 41.966 43.3327 41.7031 43.907C41.2607 43.5333 40.865 44.1186 40.4171 44.1497C39.905 44.2285 39.3325 44.0105 38.8663 44.2733C38.6419 44.1186 38.4156 44.1048 38.1903 44.2917C37.1562 43.9793 37.2697 44.9539 36.8621 44.6461C36.6441 44.4547 36.3034 44.5078 36.1577 44.7588C35.9553 44.6196 35.7565 44.5774 35.5367 44.7002C35.239 44.0801 34.4128 44.332 34.0464 44.7524C33.821 44.2669 33.3026 44.3347 32.8885 44.506C32.6202 44.5243 32.3545 44.4996 32.1017 44.6397C31.7573 44.343 31.608 44.4712 31.2279 44.4565C30.867 44.3759 30.5363 44.6727 30.201 44.7734C29.6881 44.7057 28.3168 44.626 28.5889 45.4823C28.5019 45.6426 28.4451 45.78 28.4112 45.9632C28.3058 45.8212 28.2106 45.6948 28.108 45.5565C29.2365 44.8 27.3642 44.0444 26.6662 44.974C26.4042 44.6718 26.2165 44.7304 25.873 44.7423C25.611 44.6415 25.349 44.822 25.2565 45.0647C24.7454 44.8467 23.9091 44.1827 23.4282 44.745C23.1341 44.4455 22.34 44.408 22.045 44.7148C21.7757 44.3274 20.9101 44.2834 20.7315 44.7881C20.4457 44.6342 20.1847 44.7734 19.9438 44.9401C19.7889 44.8247 19.6167 44.7817 19.4189 44.8403C19.461 44.3659 18.9517 44.016 18.5725 44.4254C18.4305 44.5866 18.3087 44.7689 18.1438 44.909C17.9744 44.5903 17.9771 43.9986 17.4999 44.0636C17.1207 44.1607 16.8917 43.7888 16.5298 44.0902C16.3402 43.7788 16.0041 43.6029 15.6056 43.7724C15.3198 43.5067 14.9589 43.2118 14.6108 43.5681C14.5394 43.558 14.5009 43.5168 14.511 43.4417C14.4899 42.7795 13.8295 42.8326 13.4961 43.2649C13.6344 42.7062 13.1627 42.3042 12.6341 42.3692C12.5572 42.0981 12.3071 41.9726 12.0387 41.9827C11.9536 41.8655 11.8583 41.7565 11.6989 41.7198C11.7282 41.3132 11.3618 41.0256 10.9789 41.1987C10.9084 41.0833 10.8379 40.9679 10.7499 40.825C10.7692 40.5804 10.64 40.3945 10.368 40.2983C10.4156 39.7799 10.0236 39.7845 9.64617 39.6682C9.38054 39.0958 9.34115 37.8273 8.47187 37.9738C8.7769 37.264 9.00223 37.089 8.27402 36.5945C8.68347 36.1365 8.56439 35.2215 7.90304 35.0557C7.91861 35.0475 7.93144 35.0402 7.94243 35.0338C8.35371 34.7956 8.84651 34.0904 8.37386 33.6874C8.44164 33.485 8.32898 33.2981 8.296 33.1021C8.81262 32.8393 8.5708 32.5196 8.80804 32.0983C9.01505 31.6514 9.40527 31.0313 9.1149 30.5578L9.11765 30.5596ZM18.0174 46.0575V45.8624C17.9991 45.9275 17.9964 45.9897 18.0128 46.0584H18.0174V46.0575ZM7.60718 35.0274C7.61542 35.02 7.62366 35.0136 7.63557 35.0035C7.64656 35.0118 7.65756 35.0191 7.66855 35.0283C7.64656 35.0438 7.62733 35.0448 7.60626 35.0283L7.60718 35.0274ZM11.971 43.8017L11.9746 43.809C11.971 43.8172 11.9673 43.8273 11.9636 43.8355C11.9481 43.8236 11.9618 43.8099 11.9664 43.7952C11.9673 43.7971 11.9682 43.7989 11.97 43.8017H11.971ZM15.5809 45.7864C15.5699 45.7828 15.5598 45.7773 15.5497 45.7718C15.5607 45.7507 15.5754 45.7653 15.5919 45.7718C15.5882 45.7763 15.5827 45.7855 15.5809 45.7855V45.7864Z" fill="#FBE08E"/>
<mask id="path-3-inside-1_1814_2831" fill="white">
<path d="M22.1116 25.6172C22.6442 25.6172 23.1767 25.6172 23.7093 25.6172C23.8914 25.7124 24.0647 25.8615 24.2569 25.8921C24.6793 25.9592 24.9279 26.2614 25.2167 26.5111C25.4061 26.6743 25.5672 26.8691 25.7493 27.0411C25.9644 27.2437 26.1027 27.4686 26.0717 27.781C26.0624 27.8723 26.0872 27.9977 26.1469 28.0574C26.2455 28.157 26.3994 28.2003 26.5033 28.296C26.7101 28.4859 26.8552 28.3338 26.9926 28.2163C27.0805 28.141 27.1349 28.0244 27.1965 27.9219C27.2999 27.7499 27.4422 27.6571 27.6485 27.6479C27.7359 27.644 27.8204 27.5935 27.9073 27.5682C28.0349 27.5313 28.1621 27.491 28.2918 27.4652C28.4296 27.438 28.5932 27.4652 28.7059 27.3996C28.9137 27.2791 29.0991 27.284 29.3253 27.335C29.656 27.4093 30.0011 27.4336 30.3317 27.3078C30.5332 27.2311 30.6973 27.2748 30.8721 27.3972C31.0289 27.507 31.2177 27.5706 31.3901 27.6591C31.4882 27.7096 31.5843 27.765 31.6765 27.8257C31.7348 27.8641 31.7862 27.9136 31.8367 27.9622C31.978 28.0982 32.1183 28.2357 32.2576 28.3742C32.38 28.4956 32.4829 28.6482 32.6261 28.7346C32.9024 28.9018 33.0781 29.1874 33.0378 29.5129C33.0184 29.6708 33.0582 29.766 33.2043 29.8632C33.4286 30.0119 33.7024 30.1187 33.7529 30.4593C33.7816 30.6517 33.9146 30.827 33.9927 31.0131C34.0413 31.1283 34.0728 31.2502 34.117 31.3673C34.2287 31.6641 34.0296 32.0362 34.3525 32.2889C34.4073 32.3316 34.4214 32.4808 34.3952 32.5614C34.3345 32.7484 34.3947 32.8888 34.5044 33.0263V33.5107C34.3938 33.6331 34.2831 33.755 34.1394 33.9139C34.217 34.1855 34.3102 34.5013 34.3972 34.819C34.4117 34.8714 34.4083 34.9322 34.4001 34.9871C34.3379 35.4078 34.3035 35.8358 34.1962 36.2448C34.1287 36.5018 34.1049 36.7987 33.8384 36.9847C33.733 37.0581 33.7024 37.232 33.6194 37.3462C33.4645 37.5599 33.4951 37.849 33.3665 38.0492C33.0737 38.5029 32.7222 38.9188 32.3941 39.3497C32.3848 39.3618 32.3698 39.3745 32.3552 39.3779C32.1266 39.4298 31.9969 39.6203 31.8231 39.75C31.6086 39.9103 31.3877 40.0833 31.1415 40.1746C30.9197 40.2572 30.7046 40.3247 30.5279 40.4894C30.4924 40.5224 30.4172 40.537 30.3677 40.5268C30.054 40.4622 29.7419 40.3879 29.3987 40.3096C29.0758 40.6526 28.801 40.6293 28.4893 40.176C28.1587 40.2922 27.8645 40.2824 27.649 39.9419C27.6106 39.8816 27.481 39.8559 27.3926 39.8549C27.1344 39.8525 26.9688 39.7393 26.8703 39.5027C26.8455 39.4425 26.7805 39.3949 26.7251 39.3531C26.6557 39.3001 26.5722 39.2651 26.5037 39.2112C26.2411 39.0052 26.1556 38.6486 25.8697 38.4592C25.8304 38.4334 25.8216 38.3606 25.8008 38.3086C25.7779 38.2522 25.7648 38.1905 25.7347 38.1385C25.6352 37.968 25.5299 37.8014 25.4032 37.5944C25.2036 37.7489 24.9599 37.951 24.7026 38.1337C24.4414 38.3183 24.2132 38.6006 23.8365 38.4679C23.7215 38.6691 23.5758 38.8109 23.3471 38.7832C23.1267 38.7565 22.9068 38.7099 22.6942 38.6467C22.5767 38.6117 22.4985 38.6015 22.3927 38.687C22.2019 38.8415 21.9883 38.8226 21.7965 38.6642C21.7043 38.5879 21.6174 38.5044 21.5222 38.4184C21.2397 38.5418 21.1902 38.5223 20.8945 38.3567C20.7479 38.2746 20.5687 38.227 20.3998 38.2114C20.1158 38.1852 19.9337 38.0438 19.8866 37.7616C19.8779 37.7096 19.8735 37.6343 19.84 37.6129C19.59 37.455 19.3638 37.2825 19.2948 36.9711C19.2895 36.9468 19.2463 36.9332 19.2254 36.9104C19.0104 36.6724 18.7958 36.4333 18.5826 36.1933C18.5676 36.1763 18.5555 36.1491 18.5559 36.1268C18.5574 35.9038 18.4705 35.7124 18.3559 35.5278C18.3108 35.4549 18.2676 35.3772 18.2433 35.296C18.1758 35.0697 18.0001 34.7777 18.0811 34.6242C18.3088 34.1913 17.8015 33.877 17.9743 33.4864C17.9768 33.4806 17.9525 33.465 17.9433 33.4519C17.7428 33.1818 17.5845 32.9015 17.7166 32.5463C17.7277 32.5167 17.717 32.4647 17.6966 32.4399C17.4636 32.1553 17.5481 31.907 17.7826 31.6821C17.5733 31.2813 17.6195 31.1156 18.0006 30.8382C17.9942 30.4996 17.7214 30.1843 17.9554 29.8389C17.9632 29.8277 17.9554 29.8073 17.9574 29.7913C18.0156 29.3181 18.3661 28.9756 18.5157 28.5413C18.5642 28.4004 18.67 28.276 18.7623 28.1541C18.8817 27.9962 18.9278 27.8242 18.9414 27.6275C18.9477 27.5381 19.04 27.4492 19.1045 27.3695C19.2589 27.1791 19.4152 26.9896 19.5803 26.8084C19.6546 26.7268 19.7497 26.6636 19.8386 26.5961C19.9012 26.5485 19.9755 26.514 20.0342 26.462C20.2838 26.2419 20.4357 25.8839 20.8479 25.8936C20.8727 25.8941 20.895 25.847 20.9236 25.8377C21.0571 25.795 21.1902 25.7391 21.3276 25.7226C21.5902 25.691 21.8718 25.8042 22.114 25.6152L22.1116 25.6172ZM22.6126 30.9223C22.5786 30.9223 22.5446 30.9223 22.5112 30.9228C22.4738 31.1001 22.4349 31.2769 22.4 31.4547C22.383 31.5407 22.3893 31.6345 22.3568 31.7132C22.2839 31.8895 22.2393 32.0489 22.3641 32.2291C22.4107 32.2966 22.382 32.4152 22.3903 32.5099C22.4141 32.7771 22.3009 33.0739 22.5281 33.2838C22.7364 32.9078 22.9408 32.5391 23.1423 32.1757C23.0782 32.0834 22.9578 31.9609 22.9 31.8137C22.7859 31.5237 22.7068 31.2206 22.6126 30.9223Z"/>
</mask>
<path d="M22.1116 25.6172C22.6442 25.6172 23.1767 25.6172 23.7093 25.6172C23.8914 25.7124 24.0647 25.8615 24.2569 25.8921C24.6793 25.9592 24.9279 26.2614 25.2167 26.5111C25.4061 26.6743 25.5672 26.8691 25.7493 27.0411C25.9644 27.2437 26.1027 27.4686 26.0717 27.781C26.0624 27.8723 26.0872 27.9977 26.1469 28.0574C26.2455 28.157 26.3994 28.2003 26.5033 28.296C26.7101 28.4859 26.8552 28.3338 26.9926 28.2163C27.0805 28.141 27.1349 28.0244 27.1965 27.9219C27.2999 27.7499 27.4422 27.6571 27.6485 27.6479C27.7359 27.644 27.8204 27.5935 27.9073 27.5682C28.0349 27.5313 28.1621 27.491 28.2918 27.4652C28.4296 27.438 28.5932 27.4652 28.7059 27.3996C28.9137 27.2791 29.0991 27.284 29.3253 27.335C29.656 27.4093 30.0011 27.4336 30.3317 27.3078C30.5332 27.2311 30.6973 27.2748 30.8721 27.3972C31.0289 27.507 31.2177 27.5706 31.3901 27.6591C31.4882 27.7096 31.5843 27.765 31.6765 27.8257C31.7348 27.8641 31.7862 27.9136 31.8367 27.9622C31.978 28.0982 32.1183 28.2357 32.2576 28.3742C32.38 28.4956 32.4829 28.6482 32.6261 28.7346C32.9024 28.9018 33.0781 29.1874 33.0378 29.5129C33.0184 29.6708 33.0582 29.766 33.2043 29.8632C33.4286 30.0119 33.7024 30.1187 33.7529 30.4593C33.7816 30.6517 33.9146 30.827 33.9927 31.0131C34.0413 31.1283 34.0728 31.2502 34.117 31.3673C34.2287 31.6641 34.0296 32.0362 34.3525 32.2889C34.4073 32.3316 34.4214 32.4808 34.3952 32.5614C34.3345 32.7484 34.3947 32.8888 34.5044 33.0263V33.5107C34.3938 33.6331 34.2831 33.755 34.1394 33.9139C34.217 34.1855 34.3102 34.5013 34.3972 34.819C34.4117 34.8714 34.4083 34.9322 34.4001 34.9871C34.3379 35.4078 34.3035 35.8358 34.1962 36.2448C34.1287 36.5018 34.1049 36.7987 33.8384 36.9847C33.733 37.0581 33.7024 37.232 33.6194 37.3462C33.4645 37.5599 33.4951 37.849 33.3665 38.0492C33.0737 38.5029 32.7222 38.9188 32.3941 39.3497C32.3848 39.3618 32.3698 39.3745 32.3552 39.3779C32.1266 39.4298 31.9969 39.6203 31.8231 39.75C31.6086 39.9103 31.3877 40.0833 31.1415 40.1746C30.9197 40.2572 30.7046 40.3247 30.5279 40.4894C30.4924 40.5224 30.4172 40.537 30.3677 40.5268C30.054 40.4622 29.7419 40.3879 29.3987 40.3096C29.0758 40.6526 28.801 40.6293 28.4893 40.176C28.1587 40.2922 27.8645 40.2824 27.649 39.9419C27.6106 39.8816 27.481 39.8559 27.3926 39.8549C27.1344 39.8525 26.9688 39.7393 26.8703 39.5027C26.8455 39.4425 26.7805 39.3949 26.7251 39.3531C26.6557 39.3001 26.5722 39.2651 26.5037 39.2112C26.2411 39.0052 26.1556 38.6486 25.8697 38.4592C25.8304 38.4334 25.8216 38.3606 25.8008 38.3086C25.7779 38.2522 25.7648 38.1905 25.7347 38.1385C25.6352 37.968 25.5299 37.8014 25.4032 37.5944C25.2036 37.7489 24.9599 37.951 24.7026 38.1337C24.4414 38.3183 24.2132 38.6006 23.8365 38.4679C23.7215 38.6691 23.5758 38.8109 23.3471 38.7832C23.1267 38.7565 22.9068 38.7099 22.6942 38.6467C22.5767 38.6117 22.4985 38.6015 22.3927 38.687C22.2019 38.8415 21.9883 38.8226 21.7965 38.6642C21.7043 38.5879 21.6174 38.5044 21.5222 38.4184C21.2397 38.5418 21.1902 38.5223 20.8945 38.3567C20.7479 38.2746 20.5687 38.227 20.3998 38.2114C20.1158 38.1852 19.9337 38.0438 19.8866 37.7616C19.8779 37.7096 19.8735 37.6343 19.84 37.6129C19.59 37.455 19.3638 37.2825 19.2948 36.9711C19.2895 36.9468 19.2463 36.9332 19.2254 36.9104C19.0104 36.6724 18.7958 36.4333 18.5826 36.1933C18.5676 36.1763 18.5555 36.1491 18.5559 36.1268C18.5574 35.9038 18.4705 35.7124 18.3559 35.5278C18.3108 35.4549 18.2676 35.3772 18.2433 35.296C18.1758 35.0697 18.0001 34.7777 18.0811 34.6242C18.3088 34.1913 17.8015 33.877 17.9743 33.4864C17.9768 33.4806 17.9525 33.465 17.9433 33.4519C17.7428 33.1818 17.5845 32.9015 17.7166 32.5463C17.7277 32.5167 17.717 32.4647 17.6966 32.4399C17.4636 32.1553 17.5481 31.907 17.7826 31.6821C17.5733 31.2813 17.6195 31.1156 18.0006 30.8382C17.9942 30.4996 17.7214 30.1843 17.9554 29.8389C17.9632 29.8277 17.9554 29.8073 17.9574 29.7913C18.0156 29.3181 18.3661 28.9756 18.5157 28.5413C18.5642 28.4004 18.67 28.276 18.7623 28.1541C18.8817 27.9962 18.9278 27.8242 18.9414 27.6275C18.9477 27.5381 19.04 27.4492 19.1045 27.3695C19.2589 27.1791 19.4152 26.9896 19.5803 26.8084C19.6546 26.7268 19.7497 26.6636 19.8386 26.5961C19.9012 26.5485 19.9755 26.514 20.0342 26.462C20.2838 26.2419 20.4357 25.8839 20.8479 25.8936C20.8727 25.8941 20.895 25.847 20.9236 25.8377C21.0571 25.795 21.1902 25.7391 21.3276 25.7226C21.5902 25.691 21.8718 25.8042 22.114 25.6152L22.1116 25.6172ZM22.6126 30.9223C22.5786 30.9223 22.5446 30.9223 22.5112 30.9228C22.4738 31.1001 22.4349 31.2769 22.4 31.4547C22.383 31.5407 22.3893 31.6345 22.3568 31.7132C22.2839 31.8895 22.2393 32.0489 22.3641 32.2291C22.4107 32.2966 22.382 32.4152 22.3903 32.5099C22.4141 32.7771 22.3009 33.0739 22.5281 33.2838C22.7364 32.9078 22.9408 32.5391 23.1423 32.1757C23.0782 32.0834 22.9578 31.9609 22.9 31.8137C22.7859 31.5237 22.7068 31.2206 22.6126 30.9223Z" fill="white" stroke="white" stroke-width="0.5" mask="url(#path-3-inside-1_1814_2831)"/>
<path d="M28.9361 38.496C28.8528 38.5219 28.7667 38.5406 28.6868 38.5753C28.4628 38.6725 28.1499 38.6075 27.9771 38.4385C27.9163 38.379 27.8269 38.3514 27.7503 38.3096C27.7415 38.3047 27.7305 38.3041 27.7224 38.2985C27.5767 38.1978 27.4216 38.1086 27.2891 37.9912C27.2181 37.928 27.1813 37.8192 27.1377 37.7264C27.0753 37.5939 26.9888 37.4708 26.9805 37.315C26.9799 37.3034 26.9736 37.2896 26.9658 37.2811C26.826 37.1275 26.7406 36.9462 26.7093 36.7364C26.7068 36.7194 26.6911 36.7051 26.6858 36.6882C26.6635 36.6141 26.6188 36.5368 26.6263 36.4657C26.6445 36.2937 26.5764 36.1581 26.5018 36.0191C26.4605 35.9422 26.4235 35.8624 26.3883 35.7823C26.3282 35.6456 26.3496 35.4984 26.358 35.3576C26.3647 35.244 26.3453 35.147 26.3084 35.0418C26.2344 34.8303 26.2268 34.6136 26.331 34.4054C26.3616 34.3445 26.3662 34.2934 26.3101 34.2394C26.2178 34.1507 26.1734 34.0351 26.1722 33.9034C26.171 33.7753 26.1668 33.6467 26.174 33.519C26.1779 33.4502 26.191 33.376 26.2214 33.3163C26.254 33.2524 26.2629 33.191 26.2624 33.1225C26.2617 33.0128 26.2456 32.8978 26.271 32.7943C26.3074 32.6453 26.3499 32.4988 26.3779 32.3467C26.3973 32.2419 26.4477 32.1446 26.4509 32.0318C26.4525 31.9755 26.4888 31.9205 26.5084 31.8645C26.5177 31.8381 26.529 31.8115 26.5322 31.7842C26.5469 31.6657 26.5926 31.5644 26.6758 31.4819C26.6848 31.473 26.6992 31.4661 26.7026 31.4553C26.7368 31.3479 26.7699 31.24 26.8019 31.1319C26.8524 30.9617 26.8927 30.7873 26.9562 30.6226C26.9852 30.5477 27.0553 30.4874 27.1139 30.4285C27.2211 30.3206 27.3359 30.2209 27.4435 30.1133C27.5492 30.0077 27.6421 29.8864 27.7548 29.7902C27.8745 29.6881 28.0011 29.582 28.1421 29.5237C28.349 29.4381 28.561 29.3387 28.7959 29.3796C28.8543 29.3898 28.9184 29.3962 28.9674 29.4265C29.0391 29.4708 29.112 29.4772 29.189 29.4735C29.3 29.468 29.394 29.5119 29.4939 29.5592C29.6392 29.6281 29.7583 29.7227 29.8589 29.8486C29.8662 29.8577 29.8796 29.8626 29.8909 29.8671C30.0737 29.9384 30.1973 30.0758 30.282 30.2547C30.3155 30.3255 30.3555 30.3847 30.4173 30.4357C30.5187 30.5197 30.6114 30.6166 30.6504 30.7545C30.6562 30.775 30.6762 30.7909 30.6884 30.8097C30.7329 30.8779 30.7828 30.943 30.82 31.0154C30.8974 31.1662 30.9765 31.3169 31.039 31.4746C31.1042 31.6388 31.1613 31.8084 31.2001 31.9811C31.2173 32.0578 31.2359 32.1328 31.2554 32.209C31.2997 32.3829 31.3493 32.5572 31.3791 32.7336C31.4029 32.8743 31.3724 33.0245 31.3724 33.1706C31.3724 33.3086 31.383 33.4466 31.3847 33.5848C31.3871 33.7809 31.3995 33.9786 31.3815 34.173C31.3667 34.3335 31.3454 34.4874 31.3805 34.6496C31.3951 34.7176 31.3521 34.7995 31.3345 34.8749C31.3225 34.9259 31.3076 34.9763 31.2963 35.0275C31.2817 35.0932 31.2832 35.1677 31.2527 35.2232C31.2068 35.3062 31.2026 35.3896 31.2059 35.4785C31.2098 35.5864 31.1704 35.6788 31.1265 35.7753C31.0537 35.9356 30.9683 36.0885 30.9192 36.2636C30.8568 36.4858 30.8008 36.7146 30.6712 36.9113C30.6279 36.9769 30.5912 37.0504 30.5663 37.1256C30.5299 37.2357 30.4667 37.3204 30.3892 37.4014C30.3365 37.4565 30.3041 37.5325 30.2601 37.5972C30.2256 37.6479 30.1871 37.6958 30.1504 37.7449C30.1047 37.806 30.0502 37.8619 30.0153 37.929C29.9563 38.0423 29.8873 38.1399 29.7715 38.1945C29.7477 38.2058 29.7284 38.229 29.7094 38.2493C29.6283 38.3361 29.5308 38.388 29.4175 38.4132C29.3556 38.4271 29.297 38.4575 29.2353 38.4729C29.1394 38.4966 29.0422 38.5137 28.9456 38.5337C28.9424 38.5211 28.9393 38.5085 28.9361 38.4958V38.496Z" fill="black"/>
<path d="M21.8441 36.7821C21.8121 36.7821 21.7803 36.783 21.7483 36.7819C21.6623 36.7786 21.584 36.7923 21.502 36.8341C21.342 36.9155 21.0535 36.9023 20.8975 36.7115C20.848 36.6508 20.7662 36.6096 20.6918 36.5851C20.5623 36.5423 20.4761 36.4448 20.3852 36.3502C20.336 36.299 20.2889 36.2455 20.2391 36.195C20.1558 36.1106 20.1118 36.0073 20.0888 35.8877C20.0795 35.8396 20.0431 35.7954 20.0131 35.7544C19.9697 35.6953 19.9116 35.6468 19.8768 35.5832C19.8128 35.4664 19.7585 35.3433 19.706 35.2199C19.6801 35.1589 19.6677 35.0914 19.6487 35.027C19.6415 35.0026 19.6358 34.977 19.6244 34.955C19.5677 34.8457 19.5457 34.7319 19.5689 34.6071C19.5746 34.5758 19.5609 34.5382 19.5499 34.5058C19.4819 34.3071 19.3823 34.118 19.3834 33.8982C19.384 33.7783 19.3782 33.6651 19.3283 33.5497C19.2925 33.467 19.3051 33.3609 19.2938 33.2654C19.2897 33.2304 19.285 33.1926 19.2698 33.1625C19.1851 32.9941 19.1821 32.829 19.2746 32.6629C19.3057 32.607 19.3096 32.5547 19.2568 32.5031C19.1639 32.4121 19.1182 32.2951 19.1177 32.1603C19.117 31.846 19.117 31.5316 19.1177 31.2173C19.118 31.0793 19.1684 30.9639 19.2608 30.8678C19.2767 30.8513 19.2967 30.8252 19.295 30.8059C19.2763 30.6142 19.3762 30.4666 19.4488 30.3077C19.4942 30.2085 19.5283 30.1033 19.5668 30.0005C19.6181 29.8631 19.6605 29.7235 19.6667 29.5738C19.6673 29.5587 19.6727 29.5418 19.681 29.5297C19.7717 29.3956 19.8433 29.2519 19.8868 29.0921C19.8981 29.0503 19.9205 29.012 19.9375 28.9719C19.9544 28.9315 19.9642 28.8853 19.9885 28.851C20.1242 28.6606 20.2534 28.4633 20.4269 28.3085C20.5742 28.1769 20.7213 28.0437 20.8783 27.9263C20.9829 27.848 21.093 27.7776 21.1983 27.6994C21.2564 27.6563 21.3404 27.6386 21.4136 27.6356C21.6213 27.6274 21.8295 27.6321 22.0374 27.6329C22.1585 27.6334 22.2631 27.6809 22.3479 27.7717C22.4221 27.8511 22.5013 27.917 22.5933 27.9758C22.7107 28.0508 22.821 28.1413 22.9396 28.217C22.9582 28.2287 22.9725 28.2482 22.9881 28.2649C23.0691 28.3512 23.1519 28.4356 23.23 28.5249C23.2645 28.5645 23.2993 28.6101 23.3161 28.6598C23.3476 28.7535 23.4229 28.8068 23.4731 28.8818C23.5824 29.0453 23.7069 29.2055 23.7762 29.3883C23.824 29.515 23.8459 29.6479 23.9207 29.7707C24.0061 29.9112 24.0937 30.0657 24.0688 30.2517C24.0674 30.2613 24.0701 30.2739 24.0752 30.2816C24.1585 30.4044 24.1592 30.5454 24.1577 30.688C24.1575 30.7196 24.1734 30.7513 24.1812 30.7832C24.2025 30.8707 24.2372 30.9574 24.2417 31.0459C24.2485 31.1783 24.2308 31.3118 24.2296 31.4449C24.2289 31.5281 24.2436 31.6114 24.2441 31.6948C24.246 32.0012 24.25 32.3079 24.2417 32.6141C24.2394 32.7042 24.1991 32.793 24.1765 32.8825C24.1695 32.9095 24.1576 32.9366 24.1573 32.9637C24.1555 33.1332 24.1617 33.3032 24.1539 33.4722C24.1502 33.5509 24.1212 33.6283 24.1032 33.7061C24.0919 33.7553 24.0807 33.8045 24.0679 33.8531C24.0449 33.9399 24.0272 34.0292 23.9955 34.1122C23.958 34.2106 23.9107 34.3051 23.8626 34.3983C23.8299 34.4616 23.7872 34.519 23.752 34.581C23.7356 34.6099 23.7124 34.6456 23.7163 34.6745C23.7454 34.8878 23.6477 35.0603 23.5602 35.2339C23.4811 35.3906 23.3969 35.5458 23.3016 35.6917C23.2282 35.8041 23.1528 35.9139 23.0889 36.0333C23.0653 36.0771 23.0271 36.116 22.9882 36.1461C22.864 36.2424 22.7902 36.3969 22.6441 36.4698C22.5776 36.503 22.532 36.5838 22.4654 36.6162C22.269 36.7121 22.077 36.838 21.8441 36.7821Z" fill="black"/>
</svg>
