<svg width="24" height="24" viewBox="0 0 24 24" fill="none" xmlns="http://www.w3.org/2000/svg">
<path d="M2 16.7647V6C2 4.34315 3.34315 3 5 3H19C20.6569 3 22 4.34315 22 6V15.7059M2 16.7647V18C2 19.6569 3.34315 21 5 21H19C20.6569 21 22 19.6569 22 18V15.7059M2 16.7647L14.8133 11.1683C15.1358 11.0274 15.5087 11.0665 15.795 11.2711L22 15.7059M8.66667 8.82353V8.82353C8.66667 9.4083 8.19261 9.88235 7.60784 9.88235H7.50327C6.9185 9.88235 6.44444 9.4083 6.44444 8.82353V8.82353M8.66667 8.82353H6.44444M8.66667 8.82353V8.82353C8.66667 8.23876 8.19262 7.76471 7.60784 7.76471H7.50327C6.9185 7.76471 6.44444 8.23876 6.44444 8.82353V8.82353" stroke="#363636" stroke-width="2" stroke-linecap="round"/>
</svg>
