<svg width="56" height="56" viewBox="0 0 56 56" fill="none" xmlns="http://www.w3.org/2000/svg">
<path d="M26.8977 12.3816V13.9663C26.6543 13.938 26.4123 13.9254 26.1742 13.9254C24.574 13.9254 23.1826 14.4293 22.1561 15.4779C21.872 15.768 21.633 16.0826 21.4324 16.4125C20.9364 16.2744 20.4138 16.2004 19.8742 16.2004C19.4768 16.2004 19.0888 16.2405 18.714 16.3167C18.4807 15.265 17.9827 14.3281 17.2416 13.587C16.1859 12.5313 14.7635 12.0004 13.2789 12.0004C9.94171 12.0004 7.80078 14.9671 7.80078 17.741C7.80078 18.7015 7.82821 22.9227 7.85552 26.8903C7.86919 28.8771 7.88286 30.8044 7.89312 32.2349L7.90551 33.9536L7.90898 34.4311L7.9099 34.5565L7.91013 34.5886L7.91016 34.5923C7.91207 39.333 9.72244 43.1345 12.6674 45.7292C15.5812 48.2965 19.476 49.5724 23.5139 49.5724C27.9058 49.5724 32.0305 47.5716 34.8697 44.6093C36.7007 42.6989 38.0102 40.4371 38.9917 38.7418L39.0311 38.6737C39.7279 37.4704 40.1864 36.6961 40.5756 36.2507C42.128 34.4741 44.0236 33.1088 45.4968 32.0545L44.3328 30.4282L45.4968 32.0545L45.5036 32.0497C45.7053 31.9053 45.903 31.7638 46.0865 31.6304C47.3514 30.7104 48.025 29.2538 48.1974 27.8516C48.3724 26.4286 48.0644 24.8332 47.0789 23.5191C46.3264 22.5158 45.1445 21.831 43.9342 21.526C42.6942 21.2135 41.2091 21.2452 39.8326 21.9596C39.3293 22.2208 38.8571 22.4866 38.4227 22.7482V12.3816C38.4227 9.00425 35.9313 6.40039 32.6602 6.40039C29.5288 6.40039 26.8977 9.10474 26.8977 12.3816Z" fill="#FFC83D" stroke="white" stroke-width="4"/>
<path d="M30.2272 13.3557L30.2292 13.3089C30.2608 12.5791 30.3098 11.4476 30.6519 10.4222C30.9809 9.43622 31.5338 8.67429 32.5061 8.4043C30.5984 8.49204 28.8967 10.2087 28.8967 12.382V17.5495C29.2355 18.2635 29.4217 19.2419 29.4217 20.5401L29.4216 24.7865C29.4216 27.2875 28.7685 29.3238 26.3146 29.3987C25.9388 29.37 25.5628 29.3477 25.1896 29.3306C23.9885 29.1438 23.3113 28.5976 22.9301 27.8629C22.4845 27.0041 22.4435 25.8877 22.4435 24.7865V20.5401C22.4435 20.1038 22.4705 19.6816 22.5292 19.2814C22.2105 18.9711 21.8381 18.7162 21.4273 18.532C21.3333 18.9873 21.2678 19.5427 21.2678 20.1847C21.2678 20.8014 21.251 21.6461 21.2324 22.5771L21.2269 22.8508C21.2064 23.8844 21.1857 24.9992 21.1857 25.9883C21.1857 27.1595 21.5431 28.0762 21.9071 28.8116C21.5066 29.0655 21.0558 29.2466 20.5732 29.3364C20.2106 29.351 19.8625 29.3679 19.5325 29.3857C18.3704 29.2824 17.358 28.656 16.73 27.7423C16.305 27.1239 16.056 26.3739 16.056 25.5655V22.0361C16.056 21.4961 16.1671 20.9822 16.3675 20.5162C16.4098 20.3886 16.4644 20.2634 16.5334 20.1377C16.6169 19.9855 16.725 19.826 16.8653 19.6564V17.7227C16.1423 18.3077 15.6326 18.8691 15.306 19.4643C14.9636 20.0884 14.8476 20.704 14.8476 21.3399C14.8476 21.518 14.8453 21.7039 14.8417 21.8977H14.8201C14.8277 22.1476 14.8262 22.4301 14.82 22.7379L14.808 23.1395C14.8003 23.3959 14.7927 23.662 14.7861 23.9371C14.6858 27.3319 14.6693 32.2008 18.7014 32.2008C20.577 32.2008 21.3339 31.5199 21.9371 30.6956C22.0129 30.6941 22.0891 30.6927 22.1657 30.6914C22.7112 31.5529 23.7998 32.2008 25.5333 32.2008C26.8404 32.2008 27.7873 31.7656 28.4724 31.0608C29.0207 31.1519 29.5439 31.2621 30.0321 31.394C29.322 31.6327 28.4697 31.9566 27.5418 32.3858C24.9938 33.5644 21.8381 35.5548 19.5125 38.7924C19.287 39.1064 19.3587 39.5438 19.6727 39.7693C19.9866 39.9949 20.424 39.9232 20.6496 39.6092C22.7865 36.6343 25.712 34.7747 28.1296 33.6564C29.3353 33.0987 30.4051 32.7299 31.1711 32.501C31.5538 32.3866 31.8597 32.3075 32.0679 32.2574C32.1719 32.2323 32.2514 32.2145 32.3037 32.2033L32.3614 32.1911L32.3743 32.1885L32.3763 32.1881C32.6656 32.132 32.8894 31.9005 32.9351 31.6093C32.9808 31.3179 32.839 31.0291 32.5804 30.8872C31.6701 30.3874 30.5471 30.0369 29.3292 29.7941C30.2928 27.7593 30.2578 24.8508 30.2328 22.7652C30.2306 22.5878 30.2285 22.4153 30.2272 22.2509L30.2272 13.3557Z" fill="#E8B008"/>
</svg>
