<svg width="24" height="24" viewBox="0 0 24 24" fill="none" xmlns="http://www.w3.org/2000/svg">
<path d="M19 8.28198V15.5C19 17.1569 17.6569 18.5 16 18.5H5C3.34315 18.5 2 17.1569 2 15.5V9.79139C2 8.43853 2.90546 7.25306 4.21065 6.8971L6.44275 6.28834C7.0907 6.11163 7.5832 5.58399 7.71492 4.92541C7.88068 4.0966 8.60841 3.5 9.45364 3.5H13.1931C13.3604 3.5 13.5273 3.51399 13.6923 3.54182L14.1284 3.61542C14.4099 3.66292 14.678 3.77013 14.9146 3.92984L17.6784 5.79543C18.5047 6.3532 19 7.28502 19 8.28198Z" fill="#F8C429"/>
<path d="M2 17.5V9.6875C2 8.03065 3.34315 6.6875 5 6.6875H5.0942C5.90273 6.6875 6.62275 6.17597 6.88889 5.4125C7.28809 4.26729 8.36813 3.5 9.58092 3.5H14.4191C15.6319 3.5 16.7119 4.26729 17.1111 5.4125C17.3772 6.17597 18.0973 6.6875 18.9058 6.6875H19C20.6569 6.6875 22 8.03065 22 9.6875V17.5C22 19.1569 20.6569 20.5 19 20.5H5C3.34315 20.5 2 19.1569 2 17.5Z" stroke="#363636" stroke-width="2"/>
<path d="M15.5 13C15.5 14.933 13.933 16.5 12 16.5C10.067 16.5 8.5 14.933 8.5 13C8.5 11.067 10.067 9.5 12 9.5C13.933 9.5 15.5 11.067 15.5 13Z" stroke="#363636" stroke-width="2"/>
</svg>
