<svg width="24" height="24" viewBox="0 0 24 24" fill="none" xmlns="http://www.w3.org/2000/svg">
<path d="M17 18.9993H4C2.89543 18.9993 2 18.1038 2 16.9993V5.63558C2 4.98573 2.31573 4.3764 2.84663 4.00164L3.74808 3.36533C4.08551 3.12714 4.48841 2.99927 4.90144 2.99927H17C18.1046 2.99927 19 3.8947 19 4.99927V16.9993C19 18.1038 18.1046 18.9993 17 18.9993Z" fill="#F8C429"/>
<path d="M2 16.7654V6.00073C2 4.34388 3.34315 3.00073 5 3.00073H19C20.6569 3.00073 22 4.34388 22 6.00073V15.7066M2 16.7654V18.0007C2 19.6576 3.34315 21.0007 5 21.0007H19C20.6569 21.0007 22 19.6576 22 18.0007V15.7066M2 16.7654L14.8133 11.169C15.1358 11.0282 15.5087 11.0672 15.795 11.2719L22 15.7066M8.66667 8.82426V8.82426C8.66667 9.40903 8.19261 9.88309 7.60784 9.88309H7.50327C6.9185 9.88309 6.44444 9.40903 6.44444 8.82426V8.82426M8.66667 8.82426H6.44444M8.66667 8.82426V8.82426C8.66667 8.23949 8.19262 7.76544 7.60784 7.76544H7.50327C6.9185 7.76544 6.44444 8.23949 6.44444 8.82426V8.82426" stroke="#363636" stroke-width="2" stroke-linecap="round"/>
</svg>
