<svg width="56" height="56" viewBox="0 0 56 56" fill="none" xmlns="http://www.w3.org/2000/svg">
<path d="M28.9388 7.70307L28.9388 7.70305L28.9335 7.71061L15.3198 27.1661C15.3191 27.1671 15.3185 27.168 15.3178 27.1689C15.3178 27.169 15.3177 27.169 15.3177 27.1691C14.7681 27.9536 14.6023 29.0117 15.0759 29.96C15.5543 30.9178 16.52 31.4286 17.5087 31.4286H21.8087L21.8087 45.1967C21.8087 46.5821 22.6824 47.6648 23.8099 48.0672C24.9497 48.4741 26.347 48.1753 27.1953 47.0142L40.6525 29.0676L40.6604 29.0571L40.6681 29.0464C41.2843 28.2017 41.3696 27.1391 40.9883 26.2589C40.597 25.3557 39.6908 24.6286 38.5087 24.6286V26.6286L38.5087 24.6286H38.5086H38.508H38.5057H38.4967H38.4614H38.3269H37.8416L36.3212 24.6286L34.2087 24.6286L34.2088 9.12853C34.2087 7.65293 33.0982 6.72994 32.077 6.48228C30.9475 6.20838 29.702 6.62305 28.9388 7.70307ZM38.5087 28.6286C38.5087 28.6286 38.5087 28.6286 38.5087 28.6286V28.5928L38.5087 28.5927V28.6286Z" fill="#FF822D" stroke="white" stroke-width="4"/>
</svg>
