<svg width="56" height="56" viewBox="0 0 56 56" fill="none" xmlns="http://www.w3.org/2000/svg">
<path d="M43.604 27.2982C43.8752 26.5657 44.0016 25.7846 44.0016 25.0067C44.0016 21.7182 41.3281 19.0447 38.0396 19.0447H34.0713C34.1146 18.3641 34.1551 17.6286 34.183 16.8961C34.2429 15.3213 34.2565 13.5266 34.0366 12.3445C33.8726 11.4629 33.4903 10.0232 32.5151 8.76762C31.4719 7.42441 29.8299 6.40597 27.4936 6.40105C26.3245 6.38405 24.6927 6.7002 23.3035 7.78498C21.8179 8.94502 20.8391 10.8072 20.8391 13.3885C20.8391 15.8022 20.8272 17.1259 20.7437 17.9883C20.6709 18.7406 20.5614 18.9505 20.4202 19.177C19.8731 20.0542 18.992 20.6786 17.5687 21.6279C17.5413 21.6462 17.5138 21.6645 17.4862 21.6829C16.094 22.6111 14.3036 23.8047 12.9235 25.7971C11.4819 27.8783 10.6016 30.6407 10.6016 34.5635C10.6016 36.5857 10.8088 40.4583 13.2344 43.8105C15.7539 47.2926 20.3227 49.7689 28.0834 49.6447H32.408C32.4847 49.6477 32.5617 49.6492 32.6391 49.6492H38.0396C39.7495 49.6492 41.2706 49.1259 42.3783 48.0691C43.4862 47.0122 44.0016 45.5897 44.0016 44.147C44.0016 43.4792 43.9218 42.8435 43.7503 42.2549C44.8501 41.1474 45.4016 39.6488 45.4016 38.088C45.4016 36.8734 45.0144 35.768 44.3758 34.8513C45.063 33.8548 45.4016 32.6615 45.4016 31.438C45.4016 29.7873 44.6918 28.346 43.604 27.2982Z" fill="#FFC83D" stroke="white" stroke-width="4"/>
<path d="M32.2004 21.0439C30.7712 21.0877 26.6004 21.8752 26.6004 25.2002C26.6004 26.9502 27.2566 27.9346 28.0441 28.4814C27.2566 28.8314 26.5566 30.1308 26.5566 31.7408C26.5566 33.5346 28.0441 34.8471 28.0441 34.8471C28.0441 34.8471 26.5566 36.2908 26.5566 38.0189C26.5566 39.3237 27.1287 40.2864 28.0441 40.9426C27.5483 41.2222 26.5566 42.1927 26.5566 43.8377C26.5566 45.7993 28.3881 47.4424 31.9752 47.5895C30.2275 47.2659 29.3785 45.6647 29.3785 44.1462C29.3785 43.6443 29.5663 42.8385 30.0324 42.1262H37.8004C38.187 42.1262 38.5004 41.8128 38.5004 41.4262C38.5004 41.0396 38.187 40.7262 37.8004 40.7262H30.2249C29.6577 39.9841 29.3785 39.0218 29.3785 38.0872C29.3785 37.5057 29.5974 36.5636 30.1429 35.7439H37.8004C38.187 35.7439 38.5004 35.4305 38.5004 35.0439C38.5004 34.6573 38.187 34.3439 37.8004 34.3439H30.4513C29.7319 33.5753 29.3785 32.4887 29.3785 31.4372C29.3785 30.9371 29.5404 30.1702 29.9328 29.4439H37.8004C38.187 29.4439 38.5004 29.1305 38.5004 28.7439C38.5004 28.3573 38.187 28.0439 37.8004 28.0439H30.5579C29.7692 27.2089 29.3785 25.9669 29.3785 25.0059C29.3785 23.8719 29.9977 21.3663 32.2007 21.0723L32.2004 21.0439Z" fill="#E8B008"/>
</svg>
