<svg width="56" height="56" viewBox="0 0 56 56" fill="none" xmlns="http://www.w3.org/2000/svg">
<path d="M43.3666 6.98771L43.3666 6.98775C43.3747 6.99123 43.3828 6.99472 43.3909 6.99822C43.953 7.18364 44.9972 7.56575 45.9296 8.16602L45.9411 8.17348L45.9411 8.17352C49.2812 10.3567 49.6469 13.4377 49.6469 15.4476C49.6469 19.5131 47.971 23.8276 45.2838 26.9147C45.3721 27.2787 45.4189 27.6585 45.4189 28.0482C45.4189 30.6992 43.2698 32.8482 40.6189 32.8482C40.266 32.8482 39.9212 32.8099 39.5889 32.7371L31.3521 41.0964C31.4143 41.4046 31.4469 41.723 31.4469 42.0482C31.4469 44.6992 29.2978 46.8482 26.6469 46.8482C26.2409 46.8482 25.8456 46.7975 25.4677 46.7018C22.9802 48.4677 20.0629 49.4965 16.9243 49.6181L16.9056 49.6189L16.8869 49.6192L15.4869 49.6472L15.4669 49.6476H15.4469C13.2106 49.6476 11.4458 49.0092 10.1008 48.1664L10.0918 48.1607C7.75435 46.6784 6.44702 44.0877 6.44688 41.4181C6.44688 41.4179 6.44687 41.4178 6.44687 41.4176L6.44673 40.7784C6.11891 37.7617 7.52662 34.5877 11.1636 32.9461C12.2862 32.4355 12.7342 31.9937 13.8338 30.8802L13.834 30.8799L13.9678 30.7445L13.9733 30.739L13.9788 30.7335L31.2631 13.5052C32.3524 12.4017 33.0562 11.6287 33.5544 10.6009L43.3666 6.98771ZM43.3666 6.98771L43.3548 6.98273M43.3666 6.98771L43.3548 6.98273M43.3548 6.98273C39.7614 5.4697 35.3005 6.99363 33.5548 10.5999L43.3548 6.98273Z" fill="black" stroke="white" stroke-width="4"/>
<path d="M43.4177 28.048C43.4177 29.5944 42.1641 30.848 40.6177 30.848C39.0713 30.848 37.8177 29.5944 37.8177 28.048C37.8177 26.5016 39.0713 25.248 40.6177 25.248C42.1641 25.248 43.4177 26.5016 43.4177 28.048ZM29.4457 42.048C29.4457 43.5944 28.1921 44.848 26.6457 44.848C25.0993 44.848 23.8457 43.5944 23.8457 42.048C23.8457 40.5016 25.0993 39.248 26.6457 39.248C28.1921 39.248 29.4457 40.5016 29.4457 42.048Z" fill="#CA0B4A"/>
<path d="M44.8473 9.84763C43.8253 9.18963 42.5372 8.82563 42.3552 8.76963C39.8492 8.05563 38.3653 10.5756 37.2033 12.9976C36.5453 14.3556 35.6632 15.6156 34.5712 16.7216L17.2253 34.2916C16.0213 35.5096 14.6073 36.4896 13.0813 37.2036C11.4433 37.9596 8.44727 40.6476 8.44727 40.6476V41.4176C8.44727 43.4476 9.44125 45.3796 11.1632 46.4716C12.2132 47.1296 13.6133 47.6476 15.4473 47.6476L16.8473 47.6196C20.4593 47.4796 23.7353 45.9676 26.2833 43.3916L43.2092 26.2136C45.9112 23.4696 47.6473 19.2976 47.6473 15.4476C47.6473 13.7116 47.3533 11.4856 44.8473 9.84763Z" fill="#F3C07B"/>
<path d="M42.5787 8.826C39.9187 7.706 36.6147 8.868 35.3547 11.472C34.6967 12.83 33.7727 13.81 32.6807 14.916L15.3907 32.15C14.1867 33.368 13.5287 34.068 11.9887 34.768C9.1327 36.056 8.16671 38.436 8.44671 40.662C8.79671 43.504 12.0307 46.36 15.4467 46.22L16.1047 46.234C19.7167 46.094 22.5447 45.128 25.0927 42.552L42.1587 24.73C44.9167 21.93 46.3867 18.122 46.2327 14.202C46.1347 11.64 44.5387 9.666 42.5787 8.826Z" fill="#4D437A"/>
<path fill-rule="evenodd" clip-rule="evenodd" d="M35.0457 17.5193C35.0457 17.9059 34.7323 18.2193 34.3457 18.2193C33.9591 18.2193 33.6457 17.9059 33.6457 17.5193C33.6457 17.1327 33.9591 16.8193 34.3457 16.8193C34.7323 16.8193 35.0457 17.1327 35.0457 17.5193ZM39.2457 21.7474C39.2457 22.134 38.9323 22.4474 38.5457 22.4474C38.1591 22.4474 37.8457 22.134 37.8457 21.7474C37.8457 21.3608 38.1591 21.0474 38.5457 21.0474C38.9323 21.0474 39.2457 21.3608 39.2457 21.7474ZM31.5457 21.0193C31.9323 21.0193 32.2457 20.7059 32.2457 20.3193C32.2457 19.9327 31.9323 19.6193 31.5457 19.6193C31.1591 19.6193 30.8457 19.9327 30.8457 20.3193C30.8457 20.7059 31.1591 21.0193 31.5457 21.0193ZM36.4457 24.5474C36.4457 24.934 36.1323 25.2474 35.7457 25.2474C35.3591 25.2474 35.0457 24.934 35.0457 24.5474C35.0457 24.1608 35.3591 23.8474 35.7457 23.8474C36.1323 23.8474 36.4457 24.1608 36.4457 24.5474ZM20.3457 32.2474C20.7323 32.2474 21.0457 31.934 21.0457 31.5474C21.0457 31.1608 20.7323 30.8474 20.3457 30.8474C19.9591 30.8474 19.6457 31.1608 19.6457 31.5474C19.6457 31.934 19.9591 32.2474 20.3457 32.2474ZM25.2457 35.7474C25.2457 36.134 24.9323 36.4474 24.5457 36.4474C24.1591 36.4474 23.8457 36.134 23.8457 35.7474C23.8457 35.3608 24.1591 35.0474 24.5457 35.0474C24.9323 35.0474 25.2457 35.3608 25.2457 35.7474ZM17.5457 35.0474C17.9323 35.0474 18.2457 34.734 18.2457 34.3474C18.2457 33.9608 17.9323 33.6474 17.5457 33.6474C17.1591 33.6474 16.8457 33.9608 16.8457 34.3474C16.8457 34.734 17.1591 35.0474 17.5457 35.0474ZM22.4457 38.5474C22.4457 38.934 22.1323 39.2474 21.7457 39.2474C21.3591 39.2474 21.0457 38.934 21.0457 38.5474C21.0457 38.1608 21.3591 37.8474 21.7457 37.8474C22.1323 37.8474 22.4457 38.1608 22.4457 38.5474Z" fill="black"/>
</svg>
