<svg width="56" height="56" viewBox="0 0 56 56" fill="none" xmlns="http://www.w3.org/2000/svg">
<mask id="path-1-outside-1_1163_4811" maskUnits="userSpaceOnUse" x="4.40039" y="4.7998" width="48" height="44" fill="black">
<rect fill="white" x="4.40039" y="4.7998" width="48" height="44"/>
<path d="M20.3276 14.0722C19.9174 13.9027 19.5952 13.5779 19.434 13.1824L18.101 10.16C17.852 9.67975 17.1342 9.67975 16.8998 10.16L15.5668 13.1824C15.391 13.5779 15.0687 13.8886 14.6732 14.0722L12.9739 14.8066C12.4759 15.0467 12.4759 15.7388 12.9739 15.9789L14.6732 16.7133C15.0834 16.8828 15.4056 17.2076 15.5668 17.6031L16.8998 20.6397C17.1488 21.1199 17.8666 21.1199 18.101 20.6397L19.434 17.6031C19.6098 17.2076 19.9321 16.8969 20.3276 16.7133L22.0268 15.9789C22.5249 15.7388 22.5249 15.0467 22.0268 14.8066L20.3276 14.0722Z"/>
<path d="M41.4046 23.1763C40.1867 22.6341 39.2237 21.6353 38.7138 20.4082L34.706 10.9341C33.9696 9.4217 31.8312 9.4217 31.0948 10.9341L27.087 20.4082C26.563 21.6353 25.6 22.6341 24.3962 23.1763L19.3263 25.4735C17.8251 26.2154 17.8251 28.3842 19.3263 29.1261L24.3962 31.4233C25.6141 31.9655 26.5771 32.9643 27.087 34.1914L31.0948 43.6655C31.8312 45.1779 33.9696 45.1779 34.706 43.6655L38.7138 34.1914C39.2378 32.9643 40.2008 31.9655 41.4046 31.4233L46.4745 29.1261C47.9757 28.3842 47.9757 26.2154 46.4745 25.4735L41.4046 23.1763Z"/>
<path d="M17.1939 32.6623C17.4188 33.2108 17.8289 33.636 18.3448 33.8828L20.5143 34.8976C21.1624 35.2267 21.1624 36.1729 20.5143 36.502L18.3448 37.5168C17.8289 37.7637 17.4188 38.2025 17.1939 38.7373L15.4742 42.9061C15.1568 43.5644 14.244 43.5644 13.9265 42.9061L12.2068 38.7373C11.982 38.1888 11.5719 37.7637 11.056 37.5168L8.88653 36.502C8.23834 36.1729 8.23834 35.2267 8.88653 34.8976L11.056 33.8828C11.5719 33.636 11.982 33.1971 12.2068 32.6623L13.9265 28.4935C14.244 27.8352 15.1568 27.8352 15.4742 28.4935L17.1939 32.6623Z"/>
</mask>
<path d="M20.3276 14.0722C19.9174 13.9027 19.5952 13.5779 19.434 13.1824L18.101 10.16C17.852 9.67975 17.1342 9.67975 16.8998 10.16L15.5668 13.1824C15.391 13.5779 15.0687 13.8886 14.6732 14.0722L12.9739 14.8066C12.4759 15.0467 12.4759 15.7388 12.9739 15.9789L14.6732 16.7133C15.0834 16.8828 15.4056 17.2076 15.5668 17.6031L16.8998 20.6397C17.1488 21.1199 17.8666 21.1199 18.101 20.6397L19.434 17.6031C19.6098 17.2076 19.9321 16.8969 20.3276 16.7133L22.0268 15.9789C22.5249 15.7388 22.5249 15.0467 22.0268 14.8066L20.3276 14.0722Z" fill="#F9C23C"/>
<path d="M41.4046 23.1763C40.1867 22.6341 39.2237 21.6353 38.7138 20.4082L34.706 10.9341C33.9696 9.4217 31.8312 9.4217 31.0948 10.9341L27.087 20.4082C26.563 21.6353 25.6 22.6341 24.3962 23.1763L19.3263 25.4735C17.8251 26.2154 17.8251 28.3842 19.3263 29.1261L24.3962 31.4233C25.6141 31.9655 26.5771 32.9643 27.087 34.1914L31.0948 43.6655C31.8312 45.1779 33.9696 45.1779 34.706 43.6655L38.7138 34.1914C39.2378 32.9643 40.2008 31.9655 41.4046 31.4233L46.4745 29.1261C47.9757 28.3842 47.9757 26.2154 46.4745 25.4735L41.4046 23.1763Z" fill="#F9C23C"/>
<path d="M17.1939 32.6623C17.4188 33.2108 17.8289 33.636 18.3448 33.8828L20.5143 34.8976C21.1624 35.2267 21.1624 36.1729 20.5143 36.502L18.3448 37.5168C17.8289 37.7637 17.4188 38.2025 17.1939 38.7373L15.4742 42.9061C15.1568 43.5644 14.244 43.5644 13.9265 42.9061L12.2068 38.7373C11.982 38.1888 11.5719 37.7637 11.056 37.5168L8.88653 36.502C8.23834 36.1729 8.23834 35.2267 8.88653 34.8976L11.056 33.8828C11.5719 33.636 11.982 33.1971 12.2068 32.6623L13.9265 28.4935C14.244 27.8352 15.1568 27.8352 15.4742 28.4935L17.1939 32.6623Z" fill="#F9C23C"/>
<path d="M19.434 13.1824L23.1383 11.673L23.1168 11.6203L23.0939 11.5682L19.434 13.1824ZM20.3276 14.0722L21.9145 10.4005L21.8849 10.3877L21.8552 10.3754L20.3276 14.0722ZM18.101 10.16L21.7608 8.5458L21.71 8.43042L21.6519 8.31848L18.101 10.16ZM16.8998 10.16L13.3051 8.40544L13.2712 8.47499L13.2399 8.5458L16.8998 10.16ZM15.5668 13.1824L19.2219 14.8072L19.2266 14.7966L15.5668 13.1824ZM14.6732 14.0722L16.2601 17.7439L16.3091 17.7228L16.3574 17.7003L14.6732 14.0722ZM12.9739 14.8066L11.387 11.1349L11.3113 11.1676L11.2369 11.2034L12.9739 14.8066ZM12.9739 15.9789L11.2369 19.582L11.3113 19.6179L11.387 19.6506L12.9739 15.9789ZM14.6732 16.7133L13.0862 20.385L13.1158 20.3978L13.1456 20.4101L14.6732 16.7133ZM15.5668 17.6031L11.8625 19.1125L11.8826 19.162L11.9041 19.2109L15.5668 17.6031ZM16.8998 20.6397L13.2372 22.2475L13.2892 22.3661L13.3489 22.4811L16.8998 20.6397ZM18.101 20.6397L21.6957 22.3942L21.7311 22.3215L21.7636 22.2475L18.101 20.6397ZM19.434 17.6031L15.7789 15.9783L15.7751 15.9868L15.7714 15.9952L19.434 17.6031ZM20.3276 16.7133L18.7407 13.0416L18.6917 13.0627L18.6433 13.0852L20.3276 16.7133ZM22.0268 15.9789L23.6138 19.6506L23.6895 19.6179L23.7638 19.582L22.0268 15.9789ZM22.0268 14.8066L23.7638 11.2034L23.6895 11.1676L23.6138 11.1349L22.0268 14.8066ZM38.7138 20.4082L42.4077 18.8735L42.4028 18.8617L42.3978 18.8498L38.7138 20.4082ZM41.4046 23.1763L43.0554 19.5328L43.0434 19.5274L43.0314 19.522L41.4046 23.1763ZM34.706 10.9341L38.39 9.37573L38.3487 9.27823L38.3024 9.18304L34.706 10.9341ZM31.0948 10.9341L27.4984 9.18304L27.4521 9.27822L27.4108 9.37573L31.0948 10.9341ZM27.087 20.4082L30.7656 21.9791L30.7709 21.9666L27.087 20.4082ZM24.3962 23.1763L22.7535 19.5292L22.7454 19.5328L24.3962 23.1763ZM19.3263 25.4735L17.6754 21.83L17.6142 21.8578L17.5539 21.8876L19.3263 25.4735ZM19.3263 29.1261L17.5539 32.7121L17.6142 32.7418L17.6754 32.7696L19.3263 29.1261ZM24.3962 31.4233L22.7454 35.0668L22.7574 35.0722L22.7694 35.0776L24.3962 31.4233ZM27.087 34.1914L23.3931 35.7261L23.398 35.738L23.403 35.7498L27.087 34.1914ZM31.0948 43.6655L27.4108 45.2239L27.4521 45.3214L27.4984 45.4166L31.0948 43.6655ZM34.706 43.6655L38.3024 45.4166L38.3487 45.3214L38.39 45.2239L34.706 43.6655ZM38.7138 34.1914L35.0352 32.6205L35.0299 32.633L38.7138 34.1914ZM41.4046 31.4233L43.0473 35.0705L43.0554 35.0668L41.4046 31.4233ZM46.4745 29.1261L48.1254 32.7696L48.1866 32.7418L48.2469 32.7121L46.4745 29.1261ZM46.4745 25.4735L48.2469 21.8876L48.1866 21.8578L48.1254 21.83L46.4745 25.4735ZM18.3448 33.8828L16.6184 37.4911L16.6342 37.4986L16.65 37.506L18.3448 33.8828ZM17.1939 32.6623L20.895 31.145L20.8917 31.137L17.1939 32.6623ZM20.5143 34.8976L22.3252 31.331L22.2676 31.3017L22.209 31.2744L20.5143 34.8976ZM20.5143 36.502L22.209 40.1252L22.2676 40.0979L22.3252 40.0686L20.5143 36.502ZM18.3448 37.5168L16.65 33.8936L16.6342 33.901L16.6184 33.9086L18.3448 37.5168ZM17.1939 38.7373L13.5066 37.1868L13.5014 37.1994L13.4962 37.2119L17.1939 38.7373ZM15.4742 42.9061L19.0771 44.6438L19.1276 44.539L19.172 44.4315L15.4742 42.9061ZM13.9265 42.9061L10.2288 44.4315L10.2732 44.539L10.3237 44.6438L13.9265 42.9061ZM12.2068 38.7373L8.50579 40.2546L8.5091 40.2626L12.2068 38.7373ZM11.056 37.5168L12.7824 33.9086L12.7666 33.901L12.7508 33.8936L11.056 37.5168ZM8.88653 36.502L7.0756 40.0686L7.13321 40.0979L7.19174 40.1252L8.88653 36.502ZM8.88653 34.8976L7.19174 31.2744L7.13321 31.3017L7.0756 31.331L8.88653 34.8976ZM11.056 33.8828L12.7508 37.506L12.7666 37.4986L12.7824 37.4911L11.056 33.8828ZM12.2068 32.6623L15.8941 34.2128L15.8994 34.2002L15.9046 34.1877L12.2068 32.6623ZM13.9265 28.4935L10.3237 26.7558L10.2732 26.8606L10.2288 26.9681L13.9265 28.4935ZM15.4742 28.4935L19.172 26.9681L19.1276 26.8606L19.0771 26.7558L15.4742 28.4935ZM15.7297 14.6918C16.3011 16.094 17.4168 17.1974 18.8 17.769L21.8552 10.3754C22.4181 10.608 22.8893 11.0618 23.1383 11.673L15.7297 14.6918ZM14.4411 11.7741L15.7742 14.7966L23.0939 11.5682L21.7608 8.5458L14.4411 11.7741ZM20.4945 11.9145C19.2241 14.5172 15.7474 14.3103 14.5501 12.0014L21.6519 8.31848C19.9565 5.0492 15.0442 4.8423 13.3051 8.40544L20.4945 11.9145ZM19.2266 14.7966L20.5596 11.7741L13.2399 8.5458L11.9069 11.5682L19.2266 14.7966ZM16.3574 17.7003C17.5542 17.1448 18.6202 16.1609 19.2219 14.8071L11.9116 11.5577C12.1618 10.9948 12.5832 10.6324 12.9889 10.4441L16.3574 17.7003ZM14.5609 18.4783L16.2601 17.7439L13.0862 10.4005L11.387 11.1349L14.5609 18.4783ZM14.7109 12.3757C17.2302 13.5902 17.2302 17.1953 14.7109 18.4098L11.2369 11.2034C7.72154 12.8981 7.72154 17.8874 11.2369 19.582L14.7109 12.3757ZM16.2601 13.0416L14.5609 12.3071L11.387 19.6506L13.0862 20.385L16.2601 13.0416ZM19.2711 16.0937C18.6997 14.6915 17.584 13.588 16.2007 13.0165L13.1456 20.4101C12.5827 20.1775 12.1115 19.7237 11.8625 19.1125L19.2711 16.0937ZM20.5624 19.0318L19.2294 15.9952L11.9041 19.2109L13.2372 22.2475L20.5624 19.0318ZM14.5063 18.8851C15.7767 16.2824 19.2533 16.4893 20.4507 18.7982L13.3489 22.4811C15.0443 25.7504 19.9565 25.9573 21.6957 22.3942L14.5063 18.8851ZM15.7714 15.9952L14.4384 19.0318L21.7636 22.2475L23.0966 19.211L15.7714 15.9952ZM18.6433 13.0852C17.4466 13.6407 16.3806 14.6246 15.7789 15.9783L23.0892 19.2278C22.839 19.7907 22.4175 20.1531 22.0119 20.3414L18.6433 13.0852ZM20.4399 12.3071L18.7407 13.0416L21.9145 20.385L23.6138 19.6506L20.4399 12.3071ZM20.2898 18.4098C17.7706 17.1953 17.7706 13.5902 20.2898 12.3757L23.7638 19.582C27.2792 17.8874 27.2792 12.8981 23.7638 11.2034L20.2898 18.4098ZM18.7407 17.7439L20.4399 18.4783L23.6138 11.1349L21.9145 10.4005L18.7407 17.7439ZM35.02 21.943C35.9164 24.1005 37.611 25.8659 39.7778 26.8305L43.0314 19.522C42.7624 19.4023 42.5309 19.1701 42.4077 18.8735L35.02 21.943ZM31.0221 12.4925L35.0299 21.9666L42.3978 18.8498L38.39 9.37573L31.0221 12.4925ZM34.6911 12.6852C33.9675 14.1713 31.8333 14.1713 31.1097 12.6852L38.3024 9.18304C36.1059 4.67205 29.6948 4.67207 27.4984 9.18304L34.6911 12.6852ZM30.7709 21.9666L34.7787 12.4925L27.4108 9.37573L23.403 18.8498L30.7709 21.9666ZM26.0389 26.8234C28.1859 25.8564 29.8597 24.1004 30.7656 21.9791L23.4083 18.8374C23.2662 19.1702 23.014 19.4118 22.7535 19.5292L26.0389 26.8234ZM20.9771 29.1169L26.047 26.8197L22.7454 19.5328L17.6754 21.83L20.9771 29.1169ZM21.0986 25.5402C22.5677 26.2663 22.5677 28.3333 21.0986 29.0594L17.5539 21.8876C13.0826 24.0975 13.0826 30.5021 17.5539 32.7121L21.0986 25.5402ZM26.047 27.7799L20.9771 25.4827L17.6754 32.7696L22.7454 35.0668L26.047 27.7799ZM30.7808 32.6566C29.8844 30.4991 28.1898 28.7337 26.023 27.7691L22.7694 35.0776C23.0384 35.1973 23.2699 35.4295 23.3931 35.7261L30.7808 32.6566ZM34.7787 42.1071L30.7709 32.633L23.403 35.7498L27.4108 45.2239L34.7787 42.1071ZM31.1097 41.9144C31.8333 40.4283 33.9675 40.4283 34.6911 41.9144L27.4984 45.4166C29.6949 49.9275 36.1059 49.9276 38.3024 45.4166L31.1097 41.9144ZM35.0299 32.633L31.0221 42.1071L38.39 45.2239L42.3978 35.7498L35.0299 32.633ZM39.7619 27.7762C37.6149 28.7432 35.941 30.4992 35.0352 32.6205L42.3925 35.7622C42.5346 35.4294 42.7868 35.1878 43.0473 35.0704L39.7619 27.7762ZM44.8237 25.4827L39.7537 27.7799L43.0554 35.0668L48.1254 32.7696L44.8237 25.4827ZM44.7022 29.0594C43.2331 28.3333 43.2331 26.2663 44.7022 25.5402L48.2469 32.7121C52.7182 30.5021 52.7182 24.0975 48.2469 21.8876L44.7022 29.0594ZM39.7537 26.8197L44.8237 29.1169L48.1254 21.83L43.0554 19.5328L39.7537 26.8197ZM20.0712 30.2745C20.4386 30.4503 20.7389 30.7642 20.895 31.145L13.4929 34.1796C14.0988 35.6575 15.2192 36.8216 16.6184 37.4911L20.0712 30.2745ZM22.209 31.2744L20.0396 30.2596L16.65 37.506L18.8195 38.5208L22.209 31.2744ZM22.3252 40.0686C25.8921 38.2575 25.8921 33.1421 22.3252 31.331L18.7033 38.4642C16.4328 37.3113 16.4328 34.0883 18.7033 32.9354L22.3252 40.0686ZM20.0396 41.14L22.209 40.1252L18.8195 32.8788L16.65 33.8936L20.0396 41.14ZM20.8812 40.2877C20.7408 40.6217 20.4716 40.9335 20.0712 41.1251L16.6184 33.9086C15.1862 34.5938 14.0969 35.7832 13.5066 37.1868L20.8812 40.2877ZM19.172 44.4315L20.8917 40.2626L13.4962 37.2119L11.7765 41.3808L19.172 44.4315ZM10.3237 44.6438C12.096 48.3185 17.3047 48.3185 19.0771 44.6438L11.8714 41.1684C13.0088 38.8103 16.392 38.8103 17.5294 41.1684L10.3237 44.6438ZM8.5091 40.2626L10.2288 44.4315L17.6243 41.3808L15.9046 37.2119L8.5091 40.2626ZM9.32958 41.1251C8.96221 40.9493 8.66191 40.6354 8.5058 40.2546L15.9079 37.22C15.302 35.7421 14.1816 34.578 12.7824 33.9086L9.32958 41.1251ZM7.19174 40.1252L9.36119 41.14L12.7508 33.8936L10.5813 32.8788L7.19174 40.1252ZM7.0756 31.331C3.50865 33.1421 3.50865 38.2575 7.0756 40.0686L10.6975 32.9354C12.968 34.0883 12.968 37.3113 10.6975 38.4642L7.0756 31.331ZM9.36119 30.2596L7.19174 31.2744L10.5813 38.5208L12.7508 37.506L9.36119 30.2596ZM8.51956 31.1119C8.66 30.7779 8.92919 30.4661 9.32958 30.2745L12.7824 37.4911C14.2146 36.8058 15.3039 35.6164 15.8941 34.2128L8.51956 31.1119ZM10.2288 26.9681L8.5091 31.137L15.9046 34.1877L17.6243 30.0188L10.2288 26.9681ZM19.0771 26.7558C17.3047 23.0811 12.096 23.0812 10.3237 26.7558L17.5294 30.2312C16.392 32.5893 13.0088 32.5893 11.8714 30.2312L19.0771 26.7558ZM20.8917 31.137L19.172 26.9681L11.7765 30.0188L13.4962 34.1877L20.8917 31.137Z" fill="white" mask="url(#path-1-outside-1_1163_4811)"/>
</svg>
