<svg width="56" height="56" viewBox="0 0 56 56" fill="none" xmlns="http://www.w3.org/2000/svg">
<path d="M17.7244 37.616C22.2899 37.616 26.2222 34.9177 28.0144 31.028C29.8065 34.9177 33.7388 37.616 38.3043 37.616C44.5609 37.616 49.6283 32.5486 49.6283 26.292C49.6283 24.7397 49.3135 23.36 48.581 22.2143C47.8383 21.0527 46.7853 20.3176 45.6451 19.8586C43.5253 19.0055 40.7634 19 38.3043 19C36.4016 19 34.3945 19.013 32.6722 19.36C31.3411 19.6281 29.9753 20.1356 28.9066 21.1488C28.314 21.0856 27.7161 21.086 27.1236 21.1502C26.0554 20.1367 24.69 19.6289 23.3591 19.3605C21.6361 19.013 19.628 19 17.7244 19C15.2653 19 12.5034 19.0055 10.3836 19.8586C9.24341 20.3176 8.1904 21.0527 7.44775 22.2143C6.71518 23.36 6.40039 24.7397 6.40039 26.292C6.40039 32.5486 11.4678 37.616 17.7244 37.616Z" fill="#635994" stroke="white" stroke-width="4"/>
<path d="M38.289 34.3281C42.531 34.3281 45.975 30.8841 45.975 26.6421C45.975 22.4001 42.531 22.2881 38.289 22.2881C34.047 22.2881 30.603 22.4001 30.603 26.6421C30.603 30.8841 34.047 34.3281 38.289 34.3281ZM17.7231 34.328C21.9651 34.328 25.4091 30.884 25.4091 26.642C25.4091 22.4 21.9651 22.3819 17.7231 22.3819C13.4811 22.3819 10.0371 22.4 10.0371 26.642C10.0371 30.884 13.4811 34.328 17.7231 34.328Z" fill="#321B41"/>
<path d="M22.9587 28.0558C23.9247 27.7478 24.4147 26.5158 24.0367 25.3258C23.6587 24.1218 22.5667 23.4078 21.5867 23.7018C20.6207 24.0098 20.1307 25.2278 20.5087 26.4318C20.8867 27.6358 21.9787 28.3498 22.9587 28.0558ZM43.6367 28.0558C44.6027 27.7478 45.0927 26.5158 44.7147 25.3258C44.3367 24.1218 43.2307 23.4078 42.2647 23.7158C41.2987 24.0238 40.8087 25.2418 41.1867 26.4458C41.5647 27.6498 42.6567 28.3638 43.6367 28.0558Z" fill="#D3D3D3"/>
</svg>
